<?xml version="1.0" encoding="utf-8"?>
<!-- Generator: Adobe Illustrator 24.2.3, SVG Export Plug-In . SVG Version: 6.00 Build 0)  -->
<svg version="1.1" id="圖層_1" xmlns="http://www.w3.org/2000/svg" xmlns:xlink="http://www.w3.org/1999/xlink" x="0px" y="0px"
	 viewBox="0 0 595.3 841.9" style="enable-background:new 0 0 595.3 841.9;" xml:space="preserve">
<path d="M65.1,420.4c0-79.9,0-159.8,0-239.6c0-3.7,1-6.8,4-9.1c1.7-1.3,3.6-2,5.6-2.1c0.5,0,1,0,1.6,0c147.8,0,295.7,0,443.5,0
	c3.7,0,6.8,1,9.1,4c1.3,1.7,2,3.6,2.1,5.6c0,0.6,0,1.1,0,1.7c0,159.8,0,319.5,0,479.3c0,3.7-1,6.9-4,9.2c-1.7,1.3-3.6,2-5.6,2.1
	c-0.6,0-1.1,0-1.7,0c-147.8,0-295.5,0-443.3,0c-3.6,0-6.7-0.9-9-3.8c-1.4-1.7-2.1-3.7-2.2-5.8c0-0.6,0-1.3,0-1.9
	C65.1,580.1,65.1,500.2,65.1,420.4z M85.2,651.2c141.9,0,283.7,0,425.5,0c0-153.9,0-307.6,0-461.4c-141.9,0-283.7,0-425.5,0
	C85.2,343.6,85.2,497.4,85.2,651.2z"/>
<path d="M284.1,417.4c-2.5-2.8-4.9-5.6-7.3-8.5c-16-18.5-32-36.9-48-55.4c-16.7-19.3-33.4-38.5-50.1-57.8
	c-9.9-11.5-19.9-23-29.8-34.4c-2.2-2.6-2.1-4.4,0.5-6.7c4.2-3.7,8.4-7.3,12.7-11c2.3-2,4.1-1.9,6.2,0.4c3.9,4.4,7.7,8.9,11.6,13.3
	c18.9,21.8,37.9,43.7,56.8,65.5c18.5,21.3,37,42.7,55.4,64c3.1,3.5,6.1,7.1,9.3,10.7c1.8-2.1,3.6-4.1,5.4-6.2
	c16-18.5,32-36.9,48-55.4c18-20.8,36-41.5,53.9-62.3c8.3-9.6,16.7-19.3,25.1-28.9c0.3-0.4,0.6-0.7,1-1.1c2-1.9,3.7-2,5.8-0.3
	c4.3,3.7,8.6,7.4,12.9,11.1c2.6,2.2,2.7,4.1,0.4,6.7c-15.3,17.6-30.6,35.3-45.9,52.9c-16.7,19.2-33.3,38.5-50,57.7
	c-12.8,14.8-25.7,29.6-38.5,44.4c-0.3,0.3-0.5,0.6-0.8,1c0.3,0.3,0.5,0.7,0.8,1c18,20.8,36,41.6,54,62.3
	c21.9,25.3,43.9,50.6,65.8,75.9c6.6,7.6,13.2,15.2,19.8,22.8c0.2,0.3,0.5,0.5,0.7,0.8c1.5,2,1.5,3.6-0.2,5.4c-0.9,1-1.9,1.8-2.9,2.6
	c-3.4,3-6.8,5.9-10.2,8.9c-2.6,2.2-4.4,2.2-6.7-0.4c-4.2-4.8-8.4-9.6-12.6-14.5c-14.6-16.8-29.2-33.7-43.7-50.5
	c-18.5-21.4-37-42.7-55.5-64.1c-8.8-10.1-17.5-20.2-26.4-30.5c-1.4,1.6-2.9,3.2-4.2,4.9c-17.3,19.9-34.6,39.9-51.8,59.8
	c-17.1,19.8-34.3,39.6-51.4,59.4c-10.1,11.7-20.2,23.3-30.3,35c-0.4,0.4-0.7,0.8-1.2,1.2c-1.8,1.6-3.5,1.8-5.4,0.2
	c-4.5-3.8-8.9-7.7-13.3-11.5c-2.3-2.1-2.4-3.9-0.3-6.3c8.3-9.6,16.6-19.2,24.9-28.7c15.4-17.8,30.9-35.6,46.3-53.5
	c15.8-18.2,31.6-36.5,47.4-54.7c7.1-8.2,14.2-16.4,21.3-24.6C283.6,418,283.8,417.7,284.1,417.4z"/>
</svg>
