<?xml version="1.0" encoding="utf-8"?>
<!-- Generator: Adobe Illustrator 24.2.3, SVG Export Plug-In . SVG Version: 6.00 Build 0)  -->
<svg version="1.1" id="圖層_1" focusable="false" xmlns="http://www.w3.org/2000/svg" xmlns:xlink="http://www.w3.org/1999/xlink"
	 x="0px" y="0px" viewBox="0 0 448 512" style="enable-background:new 0 0 448 512;" xml:space="preserve">
<style type="text/css">
	.st0{fill:none;stroke:#FFF8E1;stroke-width:26;stroke-miterlimit:10;}
</style>
<path class="st0" d="M231.9,256c54.6,0,98.9-44.3,98.9-98.9s-44.3-98.9-98.9-98.9S133,102.5,133,157.1S177.3,256,231.9,256z
	 M301.1,280.7h-12.9c-17.1,7.9-36.2,12.4-56.3,12.4s-39.1-4.5-56.3-12.4h-12.9c-57.3,0-103.8,46.5-103.8,103.8v32.1
	c0,20.5,16.6,37.1,37.1,37.1h271.9c20.5,0,37.1-16.6,37.1-37.1v-32.1C404.9,327.2,358.4,280.7,301.1,280.7z"/>
</svg>
