<?xml version="1.0" encoding="utf-8"?>
<!-- Generator: Adobe Illustrator 24.2.3, SVG Export Plug-In . SVG Version: 6.00 Build 0)  -->
<svg version="1.1" id="圖層_1" focusable="false" xmlns="http://www.w3.org/2000/svg" xmlns:xlink="http://www.w3.org/1999/xlink"
	 x="0px" y="0px" viewBox="0 0 640 512" style="enable-background:new 0 0 640 512;" xml:space="preserve">
<style type="text/css">
	.st0{fill:none;stroke:#FFF8E1;stroke-width:32;stroke-miterlimit:10;}
</style>
<path class="st0" d="M203.2,256c56.5,0,102.2-45.7,102.2-102.2S259.7,51.6,203.2,51.6S101,97.3,101,153.8S146.7,256,203.2,256z
	 M273.3,285.2h-7.6c-19,9.1-40.1,14.6-62.5,14.6s-43.4-5.5-62.5-14.6h-7.6c-58,0-105.1,47.1-105.1,105.1v26.3
	c0,24.2,19.6,43.8,43.8,43.8h262.8c24.2,0,43.8-19.6,43.8-43.8v-26.3C378.4,332.3,331.3,285.2,273.3,285.2z M466,256
	c48.4,0,87.6-39.2,87.6-87.6S514.4,80.8,466,80.8s-87.6,39.2-87.6,87.6S417.6,256,466,256z M509.8,285.2h-3.5
	c-12.7,4.4-26.1,7.3-40.3,7.3s-27.6-2.9-40.3-7.3h-3.5c-18.6,0-35.8,5.4-50.8,14.1c22.3,24,36.2,55.8,36.2,91.1v35
	c0,2-0.5,3.9-0.5,5.8h161.1c24.2,0,43.8-19.6,43.8-43.8C612,330.9,566.3,285.2,509.8,285.2z"/>
</svg>
