<?xml version="1.0" encoding="utf-8"?>
<!-- Generator: Adobe Illustrator 24.2.3, SVG Export Plug-In . SVG Version: 6.00 Build 0)  -->
<svg version="1.1" id="SvgjsSvg1001" xmlns:svgjs="http://svgjs.com/svgjs"
	 xmlns="http://www.w3.org/2000/svg" xmlns:xlink="http://www.w3.org/1999/xlink" x="0px" y="0px" viewBox="0 0 288 288"
	 style="enable-background:new 0 0 288 288;" xml:space="preserve">
<style type="text/css">
	.st0{fill:#FFF8E1;}
</style>
<g id="SvgjsG1008" transform="matrix(0.9167,0,0,0.9167,11.995200000000011,12.088912499999992)">
	<path class="st0" d="M43.2-1.2h201.6C268.7-1.2,288,18.1,288,42v201.6c0,23.9-19.3,43.2-43.2,43.2H43.2C19.3,286.8,0,267.4,0,243.6
		V42C0,18.1,19.3-1.2,43.2-1.2z"/>
	<path d="M188.4,279.5c7.9,0,6.8,9.6,6.8,9.6H92.8c0,0-1.1-9.6,6.8-9.6c7.3,0,9-3.4,9-6.8l-0.6-28.1c-39.9,9-48.4-15.8-48.4-15.8
		C52.9,212,43.9,208,43.9,208c-13.5-9,0.6-9,0.6-9c14.6,1.1,22.5,14.6,22.5,14.6c12.4,21.9,33.2,15.8,41.6,12.4
		c1.1-9.6,5.1-15.8,9-19.7c-32.1-3.4-65.3-15.8-65.3-70.9c0-15.7,5.6-28.7,14.6-38.8c-1.7-3.4-6.2-18,1.7-37.7
		c0,0,11.8-3.9,39.4,14.6c23.6-6.8,48.4-6.8,72,0C207.6,55,219.4,59,219.4,59c7.9,19.7,3.4,34.3,1.7,37.7
		c9,10.1,14.6,23.1,14.6,38.8c0,55.1-33.8,67.5-65.8,70.9c5.6,4.5,10.1,13.5,10.1,27l-0.6,39.4C179.4,276.1,181.1,279.5,188.4,279.5
		z"/>
</g>
</svg>
