<?xml version="1.0" encoding="utf-8"?>
<!-- Generator: Adobe Illustrator 24.2.3, SVG Export Plug-In . SVG Version: 6.00 Build 0)  -->
<svg version="1.1" id="圖層_1" xmlns="http://www.w3.org/2000/svg" xmlns:xlink="http://www.w3.org/1999/xlink" x="0px" y="0px"
	 viewBox="0 0 491.52 491.52" style="enable-background:new 0 0 491.52 491.52;" xml:space="preserve">
<style type="text/css">
	.st0{fill:#FDFDFD;}
	.st1{fill:#FEE796;}
	.st2{fill:#FEE795;}
	.st3{fill:#FEEF9F;}
	.st4{fill:#FEF0A1;}
	.st5{fill:#FDF3A3;}
	.st6{fill:#FEEC9A;}
	.st7{fill:#FEEDA4;}
	.st8{fill:#FDEFA4;}
	.st9{fill:#FEF5A9;}
	.st10{fill:#FEEFAB;}
	.st11{fill:#FEF1A3;}
	.st12{fill:#FEED9C;}
	.st13{fill:#FEEDA2;}
	.st14{fill:#FEF2A1;}
	.st15{fill:#FEEE9E;}
	.st16{fill:#FEEE9F;}
	.st17{fill:#FEFCA4;}
	.st18{fill:#FDF0BF;}
	.st19{fill:#FEEEA5;}
	.st20{fill:#FDEEA3;}
	.st21{fill:#FEEEA0;}
	.st22{fill:#FEED9F;}
	.st23{fill:#FEEDA0;}
	.st24{fill:#FEEFA2;}
	.st25{fill:#FEEFA8;}
	.st26{fill:#FEEFA4;}
	.st27{fill:#FEEE9D;}
	.st28{fill:#FEEEA3;}
	.st29{fill:#FEEEA6;}
	.st30{fill:#FEF2AD;}
	.st31{fill:#FEEEA1;}
	.st32{fill:#FEEFA5;}
	.st33{fill:#FEEFA7;}
	.st34{fill:#FEEFA0;}
	.st35{fill:#FEEDA3;}
	.st36{fill:#FEEEA7;}
	.st37{fill:#FEEEA4;}
	.st38{fill:#FEEDA1;}
	.st39{fill:#FEF0AA;}
	.st40{fill:#FEF0AE;}
	.st41{fill:#FEFAEB;}
	.st42{fill:#FDEEA4;}
	.st43{fill:#FEED9E;}
	.st44{fill:#FEEFAA;}
	.st45{fill:#FEF0A7;}
	.st46{fill:#FEEEA8;}
	.st47{fill:#FEF2BB;}
	.st48{fill:#FEF6D9;}
	.st49{fill:#FDEDAC;}
	.st50{fill:#FEF6D8;}
	.st51{fill:#FEFEFE;}
	.st52{fill:#FEEEA2;}
	.st53{fill:#FEEFA9;}
	.st54{fill:#FEEF9E;}
	.st55{fill:#FEF3CC;}
	.st56{fill:#FEEFA3;}
	.st57{fill:#FDF3BD;}
	.st58{fill:#FDF1BF;}
	.st59{fill:#FEEE9B;}
	.st60{fill:#FEECA0;}
	.st61{fill:#FEEF9D;}
	.st62{fill:#FEF09E;}
	.st63{fill:#FEF3AA;}
	.st64{fill:#FEF2AA;}
	.st65{fill:#FEEE9C;}
	.st66{fill:#FEEFA1;}
	.st67{fill:#FEEB9A;}
	.st68{fill:#FEE896;}
	.st69{fill:#FEEC99;}
	.st70{fill:#FEE897;}
	.st71{fill:#FEF2A0;}
	.st72{fill:#FEED9D;}
	.st73{fill:#FEF7DF;}
	.st74{fill:#FEF9EA;}
	.st75{fill:#FEF4CE;}
</style>
<path class="st0" d="M245.52,491.48c-81.11,0-162.21-0.01-243.32,0.05c-1.8,0-2.2-0.4-2.2-2.2C0.05,326.95,0.05,164.57,0,2.2
	C0,0.4,0.4,0,2.2,0c162.37,0.05,324.74,0.05,487.12,0c1.8,0,2.2,0.4,2.2,2.2c-0.05,162.37-0.05,324.74,0,487.12
	c0,1.8-0.4,2.2-2.2,2.2C408.05,491.47,326.79,491.48,245.52,491.48z"/>
<path class="st1" d="M325.04,347.2c-0.32-0.3-0.63-0.61-0.95-0.91c-1.88-2.47-4.77-3.81-6.82-6.09c-3.24-2.87-6.42-5.81-9.81-8.5
	c-3.03-2.39-5.32-5.63-8.75-7.53c-0.32-0.3-0.64-0.6-0.96-0.89c-3.72-3.51-7.6-6.84-11.53-10.12c-0.15-0.14-0.3-0.29-0.45-0.43
	c-0.9-0.75-1.69-1.6-2.53-2.41c-1.57-0.92-2.63-2.45-4.17-3.41l0.01,0.01c-0.59-0.46-1.19-0.92-1.68-1.5
	c-2.94-3.26-6.46-5.85-9.88-8.56c-0.32-0.31-0.63-0.61-0.95-0.92c-2.33-2.58-5.06-4.73-7.73-6.93c-0.67-0.56-1.35-1.1-1.96-1.72
	c-2.7-2.93-5.88-5.29-9.02-7.69c-0.15-0.14-0.3-0.29-0.45-0.43c-1.26-1.5-2.37-3.15-4.32-3.89l0.01,0.01
	c-1.07-0.84-1.91-1.94-3.05-2.69c-1.64-0.88-2.52-2.65-4.14-3.55l0,0c-0.2-0.95-0.99-1.37-1.7-1.84c-2.16-1.42-3.92-3.33-5.97-4.87
	l0.01,0.01c-2.35-1.79-3.98-4.42-6.71-5.78c-0.32-0.31-0.64-0.62-0.96-0.92c-2.78-2.34-4.89-5.43-8.17-7.21l0.01,0.01
	c-3.75-3.46-7.34-7.11-11.52-10.08l0.01,0.01c-0.58-0.47-1.19-0.92-1.67-1.5c-2.03-2.05-4.32-3.8-6.49-5.7l0.01,0.01
	c-0.85-0.59-1.49-1.45-2.43-1.93c-0.15-0.15-0.31-0.3-0.46-0.45c-1.38-1.7-2.62-3.47-4.79-4.39c-1.43-0.61-2.18-2.24-3.5-3.11
	c-2.59-2.05-4.9-4.43-7.53-6.44l0,0.01c-1.31-1.1-2.39-2.45-3.86-3.36c-2.88-2.19-5.69-4.46-8.13-7.16
	c-1.22-0.86-1.99-2.23-3.36-2.92l0,0c-0.69-1.81-2.62-2.18-3.87-3.34c-0.15-0.14-0.31-0.28-0.46-0.43
	c-2.05-2.44-4.84-4.09-6.95-6.51c-1.38-1.58-1.2-2.8,0.08-4.14c4.41-4.58,8.58-9.4,12.74-14.2c5.62-6.48,11.44-12.79,17.05-19.28
	c3.16-3.66,6.24-7.43,9.69-10.85c1.57-1.56,2.9-3.36,4.32-5.06c2.94-4.18,6.65-7.71,9.98-11.56c7.15-8.24,14.38-16.41,21.68-24.5
	c2.02-2.23,3.79-4.71,6.19-6.59c4.4-4.85,8.86-9.64,13.31-14.94c1.88,6.27,4.29,11.79,6.59,17.36c1.49,3.6,3,7.24,3.87,11.08
	c0.24,1.03,0.9,1.85,1.33,2.79c3.4,7.88,5.53,16.27,9.56,23.9c0.13,0.3,0.2,0.62,0.26,0.94c-0.24,0.82,0.34,1.27,0.81,1.77
	c0.23,4.2,2.82,7.52,4.19,11.3c0.99,2.71,2.26,5.3,3.08,8.1c1.08,3.69,2.3,7.37,4.51,10.6l0,0c0.39,2.52,1.88,4.64,2.56,7.07
	c1.52,5.37,3.75,10.47,6.19,15.48c1.83,6.18,4.29,12.11,6.88,17.99c0.21,0.76,0.15,1.62,0.83,2.21c0.08,0.3,0.18,0.6,0.2,0.91
	c-0.51,1.84,0.81,3.18,1.31,4.75c0.12,0.18,0.22,0.37,0.31,0.57c0.69,1.17,0.36,2.83,1.77,3.66c0.99,1.93,1.5,4.08,2.64,5.94
	c1.77,5.01,3.52,10.02,5.62,14.91c1.64,3.83,3.38,7.62,4.52,11.65c0.26,0.66,0.22,1.45,0.81,1.98c0.1,0.18,0.18,0.37,0.23,0.57
	c0.01,0.52,0.06,1.02,0.54,1.35c0.3,1.43,0.87,2.76,1.66,3.99c1.35,2.75,1.93,5.81,3.33,8.55c0.2,0.62,0.6,1.15,0.75,1.79
	c0.09,0.71,0.14,1.44,0.68,2.01c0.26,0.65,0.19,1.4,0.65,1.99c0.2,0.65,0.28,1.35,0.82,1.86c0.1,0.17,0.16,0.36,0.2,0.55
	c-0.15,0.8,0.63,1.16,0.85,1.79c3.11,8.85,6.74,17.49,10.17,26.2c0.21,0.78-0.19,1.77,0.78,2.3c-0.09,0.94,0.71,1.5,0.95,2.3
	c-0.04,1.1,0.27,2.1,0.93,2.99c0.73,0.65,0.36,1.78,1.07,2.44c0.27,0.65,0.27,1.44,0.92,1.92c2.41,6.37,4.57,12.82,7.31,19.06
	c0.22,0.51,0.38,1.04,0.78,1.44c1.74,4.77,3.22,9.64,5.36,14.26c0.73,1.97,1.41,3.96,2.32,5.87c0.13,0.4,0.28,0.79,0.25,1.22
	c-0.19,0.7,0.26,1.12,0.67,1.56c0.25,0.48,0.06,1,0.13,1.5c0.11,0.59,0.28,1.15,0.64,1.64c0.68,0.58,0.83,1.34,0.8,2.18
	c0.13,0.71,0.39,1.37,0.78,1.97c0.36,0.52,0.59,1.13,1.09,1.55c0.84,0.72,0.56,1.36-0.12,1.98c-0.73,0.67-1.22,0.29-1.78-0.3
	c-1.52-1.6-2.94-3.32-4.93-4.38c-1.49-0.44-2.08-2.03-3.43-2.65l0,0c-1.36-1.36-2.76-2.69-4.32-3.83l0,0.01
	c-1.34-1.05-2.16-2.7-3.84-3.36l0.01,0.01c-0.58-0.47-1.18-0.91-1.66-1.5C332.13,352.35,328.39,350,325.04,347.2z"/>
<path class="st2" d="M261.36,94.01c2.79,1.65,5.69,3.15,8.35,4.98c5.08,3.5,10.56,6.34,15.72,9.71c2.52,1.65,5.05,3.29,7.57,4.93
	c2,1.42,4.15,2.6,6.25,3.86c1.38,0.61,2.77,1.21,3.81,2.38c1.89,1.05,2.7,2.66,2.92,4.83c0.21,2.11,0.83,4.18,1.13,6.29
	c0.66,1.13,0.38,2.44,0.69,3.64c-0.07,0.75-0.3,1.46-0.46,2.19c-0.14,0.67,0.36,0.08,0.5,0.23c0.89,0.54,0.49,1.42,0.58,2.17
	c-0.42,1.04-0.71,2.05,0.53,2.78c0.19,0.71,0.63,1.39,0.27,2.16c-0.68,1.23,0.06,2.14,0.69,3.07c0.09,0.31,0.09,0.63,0.05,0.94
	c-0.73,1.12-0.54,2.1,0.47,2.95c0.17,0.28,0.24,0.59,0.22,0.92c-0.33,1.13-0.1,2.16,0.54,3.13c0.28,0.48,0.27,1.03,0.34,1.56
	c-0.24,0.96-0.18,1.88,0.46,2.69c0.71,4.55,1.57,9.07,2.49,13.57c0.16,0.8-0.03,1.62,0.21,2.41c0.1,0.32,0.17,0.65,0.18,0.99
	c0.01,0.6-0.77,1.38,0.38,1.75c-0.01,0.55,0.25,1.05,0.25,1.59c0.1,1.32-0.75,2.8,0.64,3.91c0.12,0.42,0.29,0.83,0.24,1.28
	c-0.05,1.04-0.85,2.14,0.26,3.09c0.12,0.18,0.19,0.37,0.23,0.58c0.01,1.32-0.89,2.81,0.75,3.81c0.12,0.42,0.28,0.84,0.19,1.29
	c-0.25,1.16-0.58,2.33,0.6,3.22c0.13,0.19,0.17,0.4,0.15,0.62c-0.67,1.48-0.09,2.76,0.66,4.02c0.65,4.79,1.85,9.47,2.49,14.26
	c0.21,1.2-0.2,2.35-0.27,3.53c-0.05,0.87,0.43,0.83,0.97,0.88c0.04,0.56,0.25,1.09,0.26,1.65c-0.51,2.72-0.22,5.33,1.12,7.79
	c0.11,0.19,0.18,0.4,0.21,0.61c0.03,1.28-0.87,2.76,0.76,3.72c0.12,0.31,0.11,0.64,0.12,0.96c0.05,1.21-0.68,2.55,0.63,3.54
	c0.63,4.43,1.51,8.81,2.5,13.17c0.49,2.15,0.62,4.38,0.92,6.56c0.25,1.36-1.23,3.01,0.66,4.11c0.1,0.43,0.26,0.86,0.17,1.32
	c-1.27,2.57,0.62,4.94,0.49,7.45c0,0.06,0.41-0.49,0.76-0.18c0.29,0.39,0.32,0.83,0.25,1.3c-0.1,0.47-0.24,0.93-0.51,1.33
	c-0.76,1.11-1.41,1.12-2.05-0.16c-1.53-3.06-2.94-6.21-3.75-9.48c-0.6-2.42-1.64-4.61-2.55-6.84c-0.73-1.79-1.32-3.73-2.57-5.29
	l0,0.01c-2.2-6.37-4.33-12.77-7.38-18.82c-2-5.09-3.72-10.28-6.06-15.23l0,0c-0.24-0.75-0.66-1.44-0.71-2.24
	c-3.17-9.6-7.74-18.67-10.78-28.32c-0.1-0.31-0.25-0.58-0.48-0.8c-0.13-0.17-0.23-0.35-0.3-0.55c-0.14-0.46,0.07-1-0.3-1.42
	c-0.11-0.17-0.19-0.34-0.26-0.52c-0.16-0.7-0.53-1.28-0.98-1.83c-2.21-4.84-3.74-9.93-5.69-14.86c-1.57-3.97-3.59-7.76-4.82-11.87
	c-1.85-6.2-5.18-11.82-7.06-18.01c-0.06-1.63-0.64-3.11-1.34-4.55c-2.98-6.14-5.45-12.46-7.54-18.96c-0.66-2.06-1.72-4.05-2.73-6.01
	c-1.94-3.77-2.6-7.98-4.1-11.91c-0.29-0.75-0.63-1.62,0.1-2.22C260.05,93.11,260.73,93.7,261.36,94.01z"/>
<path class="st1" d="M202.87,25.44c7.9,3.16,15.8,6.3,23.69,9.49c18.72,7.59,37.45,15.18,56.13,22.86c2.34,0.96,4.82,1.65,6.95,3.09
	c3.45,1.63,7.02,2.95,10.54,4.4c0.67,0.27,1.56,0.41,1.45,1.31c-0.12,0.98-0.92,1.44-1.9,1.5c-0.72,0.04-1.44,0.03-2.16,0.03
	c-45.27,0-90.55,0-135.82-0.02c-1.31,0-3,0.56-3.78-0.81c-0.83-1.46,0.81-2.41,1.5-3.46c5.01-7.57,9.98-15.16,15.23-22.56
	c0.33-0.46,0.49-1,0.77-1.48c2.48-4.14,5.15-8.16,8.13-11.96c1.63-1.84,2.71-4.07,4.27-5.96c0.79-0.95,1.59-1.8,2.99-1.24
	l-0.01-0.01C194.75,22.55,198.84,23.93,202.87,25.44z"/>
<path class="st1" d="M186.55,78.18c0.31,0,0.61,0,0.92,0c4.27-0.46,8.57-0.43,12.85-0.62c10.42-0.45,20.82-1.35,31.25-1.5
	c0.81-0.01,1.91-0.69,2.4,0.36c0.46,0.98-0.33,1.82-0.99,2.51c-3.84,4-7.05,8.55-10.99,12.46c-0.63,0.62-1.23,1.26-1.36,2.19
	c-0.15,0.15-0.3,0.3-0.45,0.45c-2.6,2.04-5.09,4.19-6.53,7.28c-2.43,2.43-4.41,5.27-6.93,7.63c-0.14,0.15-0.28,0.31-0.42,0.46
	c-3.72,3.59-6.85,7.71-10.3,11.52c-2.86,3.15-5.16,6.81-8.48,9.57c-1.46,1.22-2.66,2.72-3.61,4.4c-2.06,2.6-4.53,4.85-6.47,7.54
	c-0.32,0.32-0.63,0.65-0.95,0.97c-0.16,0.15-0.33,0.3-0.51,0.43c-1.8,1.44-3.65,2.84-4.58,5.08c-0.39,0.93-1.42,1.22-2.05,1.95
	c-6.3,7.23-12.82,14.27-19.08,21.54c-1.5,1.74-3.15,3.33-4.4,5.32c-0.66,1.05-1.85,2.27-3.57,1.64c-0.3-0.42-0.18-0.85-0.07-1.29
	c0.72-1.03,0.93-2.17,0.77-3.4c0.04-0.22,0.12-0.42,0.23-0.61c0.92-0.92,0.47-1.96,0.26-2.97c-0.07-0.44-0.06-0.87,0.16-1.27
	c1.12-0.92,1.13-2.11,0.83-3.38c0.01-0.22,0.05-0.43,0.11-0.63c0.69-1.06,0.7-2.19,0.35-3.36c-0.06-0.58,0.14-1.08,0.43-1.57
	c1.17-0.97,0.39-2.2,0.44-3.32c0.01-0.47,0-0.94,0.24-1.37c0.9-1.3,0.44-2.83,0.71-4.23c0.52-4.1,0.88-8.23,2.34-12.13
	c0.31-0.83-0.04-1.57,0.07-2.35c0-0.35,0.02-0.7,0.14-1.03c0.59-0.81,0.78-1.7,0.48-2.68c0-0.32,0.08-0.63,0.16-0.94
	c0.8-1.17,1.23-2.4,0.7-3.81c-0.02-0.33,0.03-0.65,0.17-0.96c0.82-0.91,0.99-1.91,0.43-3.02c0.03-0.54,0.03-1.09,0.36-1.56
	c1.07-0.92,0.65-2.07,0.48-3.19c0-0.33,0.09-0.64,0.25-0.93c1.48-1.05,0.54-2.53,0.67-3.82c0.01-0.34,0.06-0.66,0.21-0.97
	c0.91-1,0.12-2.16,0.3-3.23c0.41-2.74,0.85-5.47,1.32-8.2c0.77-0.79,0.5-1.79,0.57-2.73c0.01-0.35,0.05-0.7,0.2-1.03
	c0.49-0.97,0.55-2.01,0.54-3.07c0.93-4.36,1.65-8.75,2.37-13.14c0.24-1.48,0.61-2.98,3.02-3.23c7.96-0.85,15.95-1,23.92-1.5
	C185.83,78.42,186.24,78.5,186.55,78.18z"/>
<path class="st1" d="M231.64,405.63c0.92,0.48,1.88,0.91,2.39,1.91c1.82,2.64,2.95,5.59,3.84,8.65c0.09,0.37,0.13,0.75,0.14,1.13
	c0.02,1.01,0,2.02,0.04,3.03c0.23,3.37-0.94,6.25-3.07,8.79c-0.94,0.81-1.89,1.63-2.83,2.44c-3.64,1.92-7.48,2.95-11.63,2.63
	c-0.57-0.05-1.17-0.03-1.49,0.51c-0.46,0.76,0.35,1.1,0.64,1.61c3.23,3.56,5.89,7.54,8.62,11.48c1.33,3.01,3.35,5.51,5.77,7.7
	c0.72,0.44,1.32,0.98,1.42,1.89c0.67,0.97,1.25,2.01,2.01,2.91c0.43,0.51,0.55,0.89,0,1.39c-1.12,1-4.96,0.64-5.83-0.64
	c-1.32-1.95-2.92-3.68-4.37-5.52l0.01,0.01c-2.09-2.78-3.98-5.71-6.15-8.43c-0.62-0.45-1.06-1.05-1.51-1.65l0,0
	c-1.36-1.7-2.29-3.71-3.85-5.26l0.01,0c-0.86-1.56-2.21-2.75-3.11-4.27c-2.18-2.32-2.76-2.39-5.27-0.66
	c-0.69,0.83-0.46,1.82-0.47,2.75c-0.05,7.68,0.05,15.37-0.05,23.05c-0.13,0.29-0.34,0.5-0.63,0.62c-2.51,0.13-2.66,0.03-2.66-2.36
	c-0.01-17.33-0.02-34.67,0.01-52c0-2.72,0.54-3.21,3.21-3.3c3.98-0.12,7.99,0.34,11.92-0.61c0.97-0.24,1.97-0.12,2.95-0.15
	c0.39,0,0.78,0.01,1.16,0.08c1.69,1.07,3.55,1.16,5.47,0.93C229.53,404.44,230.6,404.99,231.64,405.63z"/>
<path class="st1" d="M439.22,432.02c0.16,0.16,0.32,0.33,0.48,0.49c1.61,2.2,3.49,4.18,5.3,6.21l-0.01-0.01
	c2.11,3.12,4.91,5.65,7.27,8.56c0.65,0.64,1.3,1.26,1.79-0.15c0.08-13.22,0.01-26.43,0.04-39.65c0-1.03-0.12-2.07,0.17-3.09
	c1.85-1.53,2.62-1.53,4.13-0.01c0.24,0.77,0.18,1.58,0.18,2.38c0,16.7,0.01,33.4-0.01,50.1c0,1.15,0.49,2.79-0.76,3.27
	c-1.35,0.52-1.85-1.2-2.58-2.04c-4.69-5.41-9.24-10.94-14.19-16.14c-1.93-2.02-3.55-4.47-5.39-6.65
	c-4.47-5.29-9.12-10.42-13.49-15.79c-0.2-0.25-0.45-0.46-0.67-0.68c-0.59-0.59-1.21-1.04-2.12-0.7c-0.94,0.35-1,1.11-1.01,1.95
	c-0.03,2.72-0.01,5.43-0.01,8.15c0,10.31-0.05,20.61,0.04,30.92c0.01,1.69-0.24,2.79-2.27,2.76c-1.99-0.03-2.31-1.14-2.31-2.82
	c0.03-16.94,0.01-33.88,0.03-50.82c0-0.93-0.26-2.07,0.85-2.54c1.09-0.46,1.77,0.46,2.44,1.1c2.57,2.47,4.64,5.39,7.02,8.03
	c3.34,3.71,6.06,7.94,9.7,11.38C436.24,427.59,437.18,430.32,439.22,432.02z"/>
<path class="st3" d="M121.37,433.05c0,9.11,0.01,18.21-0.02,27.32c0,0.85,0.5,2.21-0.98,2.26c-1.63,0.06-3.35,0.57-4.88-0.42
	c-0.17-0.11-0.15-0.58-0.13-0.88c0.47-8.22,0.02-16.44,0.24-24.66c0.06-2.12-0.66-2.76-2.75-2.73c-8.15,0.1-16.3,0.09-24.44,0
	c-2.02-0.02-2.62,0.69-2.59,2.65c0.09,7.83-0.08,15.66,0.1,23.48c0.06,2.77-1.41,2.62-3.3,2.68c-2.03,0.06-3.02-0.33-3.01-2.74
	c0.09-18.13,0.1-36.26,0-54.4c-0.01-2.49,0.99-2.9,3.13-2.88c2.07,0.02,3.24,0.26,3.17,2.83c-0.17,6.71,0,13.42-0.09,20.13
	c-0.02,1.88,0.6,2.53,2.48,2.51c8.31-0.07,16.61-0.03,24.92-0.03c1.22,0,2.09,0.13,2.15-1.85c0.21-7.17,0.4-14.33-0.11-21.5
	c-0.09-1.22,0.33-2.03,1.71-2.02c0.56,0,1.13,0.05,1.68-0.01c2.08-0.26,2.79,0.59,2.77,2.71
	C121.31,414.67,121.37,423.86,121.37,433.05z"/>
<path class="st4" d="M135.74,432.75c0-9.02,0.05-18.05-0.04-27.07c-0.02-2.11,0.48-2.98,2.8-2.95c9.5,0.12,19,0.14,28.5-0.01
	c2.61-0.04,2.76,1.18,2.8,3.21c0.05,2.17-0.43,3.15-2.89,3.1c-7.5-0.15-15.01-0.01-22.51-0.09c-1.8-0.02-2.56,0.36-2.5,2.37
	c0.15,4.55,0.12,9.1,0.01,13.65c-0.04,1.78,0.49,2.34,2.3,2.32c7.5-0.09,15.01,0.05,22.51-0.09c2.54-0.05,2.62,1.25,2.6,3.13
	c-0.02,1.84,0.02,3.21-2.57,3.16c-7.5-0.15-15.01,0-22.51-0.09c-1.76-0.02-2.36,0.47-2.33,2.29c0.1,6.39,0.1,12.78,0,19.16
	c-0.03,1.75,0.62,2.14,2.23,2.13c7.58-0.06,15.17,0.05,22.75-0.08c2.16-0.04,2.5,0.83,2.44,2.67c-0.06,1.82,0.02,3.22-2.57,3.18
	c-9.5-0.13-19-0.1-28.5-0.01c-2.06,0.02-2.57-0.76-2.55-2.68C135.78,450.96,135.74,441.86,135.74,432.75z"/>
<path class="st5" d="M375.46,456.94c8.31,0.01,16.61,0.11,24.92-0.04c2.43-0.04,2.49,1.11,2.46,2.9c-0.03,1.7,0.13,3.01-2.38,2.97
	c-9.66-0.14-19.33-0.1-28.99-0.02c-1.83,0.02-2.28-0.59-2.27-2.34c0.06-18.37,0.05-36.74,0.01-55.11c0-1.83,0.53-2.56,2.45-2.55
	c9.74,0.07,19.49,0.1,29.23-0.01c2.74-0.03,2.31,1.66,2.39,3.33c0.1,1.86-0.17,3-2.52,2.96c-7.66-0.12-15.33,0-23-0.08
	c-1.74-0.02-2.39,0.43-2.35,2.27c0.12,4.63,0.11,9.26,0,13.89c-0.04,1.72,0.57,2.18,2.21,2.16c7.51-0.07,15.02,0.08,22.52-0.09
	c2.73-0.06,2.64,1.38,2.71,3.3c0.07,2.05-0.36,3.05-2.75,3c-7.42-0.14-14.85,0.01-22.28-0.09c-1.93-0.03-2.44,0.58-2.41,2.46
	c0.11,7.03,0.06,14.05,0.07,21.08c-0.28,0.17-0.57,0.2-0.87,0.08c-0.75-0.36-0.93-0.97-0.89-1.77c0.26-6.45,0.04-12.9,0.13-19.34
	c0.02-1.19-0.04-2.43,1.13-3.22c0.81-0.42,1.7-0.37,2.57-0.37c7.55,0,15.1-0.04,22.64,0.01c2.51,0.49-0.21-1.02,0.46-1.23
	c-0.33-1.75-1.7-1.66-2.98-1.66c-5.91-0.03-11.82-0.01-17.73-0.01c-0.96,0-1.92,0.04-2.87-0.13c-2.55-0.45-4.16-2.16-4.23-4.73
	c-0.12-4.31-0.13-8.62,0.01-12.93c0.09-2.71,1.02-3.38,3.76-3.36c7.34,0.05,14.68,0.02,22.02,0.01c-7.52-0.01-15.04,0-22.8-0.01
	c0.8-1.76,2.2-1.43,3.33-1.44c6.15-0.07,12.3-0.02,18.44-0.03c0.88,0,1.76,0.02,2.62-0.21c0.48-0.13,0.97-0.37,0.98-0.9
	c0.01-0.65-0.58-0.63-1.05-0.67c-0.48-0.04-0.96-0.04-1.44-0.04c-8.14-0.01-16.29-0.01-24.43,0c-3.14,0.01-3.33,0.17-3.33,3.18
	c-0.02,16.53-0.02,33.06,0,49.58c0,3.05,0.2,3.23,3.28,3.24c7.59,0.02,15.17,0.04,22.76-0.03c1.21-0.01,3.22,0.6,3.28-1.34
	c0.06-2.05-1.98-1.37-3.16-1.39c-6.15-0.08-12.3,0-18.44-0.07C377.51,458.15,376.03,458.62,375.46,456.94z"/>
<path class="st6" d="M433.94,426.75c-2.43-0.98-3.46-3.4-5.14-5.14c-2.34-2.44-4.35-5.22-6.44-7.86c-1.87-2.35-3.9-4.49-5.95-6.64
	c-0.44-0.46-0.81-1.44-1.66-1.01c-0.74,0.38-0.46,1.29-0.46,1.98c-0.01,14.22-0.01,28.45-0.01,42.67c0,2.88,0.09,5.76-0.03,8.63
	c-0.07,1.75,0.81,1.86,2.2,1.93c1.7,0.09,1.2-0.94,1.2-1.83c-0.01-13.18,0-26.37-0.01-39.55c0-1,0.08-1.84,1.15-2.4
	c1.16-0.6,2.22-0.24,2.8,0.56c1.74,2.39,3.9,4.43,5.69,6.79c1.74,2.29,3.9,4.48,5.93,6.67c2.48,2.69,5.04,5.33,7.24,8.24
	c5.33,7.04,11.91,12.99,17.47,20.1c0-18.4,0-36.8,0-55.2c1.67,0.61,1.17,2.07,1.17,3.23c0.04,12.21,0.03,24.43,0.02,36.64
	c0,4.71,0.06,9.42-0.04,14.13c-0.03,1.24,0.14,2.97-2.09,2.57c-0.17-0.16-0.33-0.33-0.5-0.49c-0.48-0.63-0.86-1.35-1.46-1.88l0.01,0
	c-1.48-2.32-3.5-4.18-5.29-6.24l0.01,0.01c-0.96-1.42-2.27-2.53-3.35-3.85l0,0c-1.42-2.08-3.13-3.92-4.85-5.75
	c-3.58-3.48-6.62-7.44-9.89-11.2c-3.79-4.36-7.44-8.84-11.15-13.27c-1.41-0.5-1.18,0.57-1.19,1.3c-0.03,2.08-0.01,4.15-0.01,6.23
	c0,11.26-0.04,22.53,0.04,33.79c0.01,1.78-0.34,2.68-2.3,2.32c-0.62-0.11-1.27-0.03-1.91-0.03c-1.07-0.01-1.66-0.45-1.57-1.59
	c0.03-0.32,0-0.64,0-0.96c0-17.97-0.01-35.95,0.02-53.92c0-0.98-0.62-2.76,1.64-2.01c3.13,3.57,6.35,7.08,9.37,10.75
	c2.31,2.81,4.96,5.35,6.93,8.45C432.33,424.21,433.66,425.15,433.94,426.75z"/>
<path class="st7" d="M175.5,39.8c-0.31,2.5-2.2,4.1-3.48,6.04c-3.8,5.75-7.64,11.47-11.47,17.2c-0.53,0.79-1.1,1.56-1.68,2.32
	c-0.38,0.5-1,1.02-0.64,1.65c0.32,0.55,1.06,0.65,1.72,0.64c0.56-0.01,1.12,0,1.68,0c45.34,0,90.68,0,136.01-0.02
	c1.27,0,3.21,0.63,3.5-1.07c0.22-1.28-1.82-1.11-2.78-1.57c-2.89-1.39-6.06-2.21-8.73-4.1c6.04,1.89,11.75,4.57,17.8,6.93
	c-0.97,1.08-1.82,0.76-2.55,0.76c-48.69,0.02-97.38,0.02-146.07,0c-0.76,0-1.72,0.39-2.23-0.39c-0.58-0.88,0.4-1.47,0.8-2.06
	c5.73-8.52,11.5-17.01,17.27-25.5C174.87,40.3,175.22,40.07,175.5,39.8z"/>
<path class="st8" d="M52.28,436.25c0-8.22-0.05-16.45,0.03-24.67c0.02-1.97-0.6-2.73-2.61-2.63c-2.87,0.13-5.75-0.06-8.62,0.06
	c-2.67,0.11-2.12-1.72-2.17-3.25c-0.05-1.56-0.22-3.03,2.19-3.01c9.34,0.08,18.68,0.06,28.02,0.01c1.75-0.01,2.39,0.58,2.39,2.36
	c0,3.87,0.07,3.87-3.72,3.87c-2,0-3.99,0-5.99,0c-3.28,0-3.28,0-3.28,3.18c0,15.89,0.01,31.77-0.02,47.66c0,0.97,0.48,2.39-0.85,2.7
	c-1.68,0.39-3.48,0.47-5.18-0.09c-0.56-0.18-0.25-0.81-0.25-1.27c0.01-8.3,0.01-16.6,0.01-24.91
	C52.25,436.25,52.26,436.25,52.28,436.25z"/>
<path class="st9" d="M456.98,461.26c1.32-0.11,1.42-1.03,1.42-2.07c-0.01-17.66,0-35.32,0-52.97c0-0.56,0.04-1.13-0.48-1.53
	c-0.85-2.09-2.23-0.37-3.36-0.47c-0.53,0.72-0.23,1.55-0.23,2.31c-0.02,13.07-0.01,26.14-0.03,39.21c0,0.86,0.22,1.75-0.22,2.58
	c-0.76-0.08-1.75,0.32-1.93-0.94c-0.12-0.11-0.16-0.21-0.11-0.32c0.04-0.1,0.08-0.15,0.13-0.15c1.8,1.34,1.44-0.15,1.44-1.11
	c0-13.24,0-26.48,0-39.71c0-2.95,2.79-4.56,5.43-3.13c1.1,0.59,0.78,1.66,0.78,2.56c0.02,13.24,0.01,26.48,0.01,39.71
	c0,5.02,0.01,10.05-0.01,15.07c0,0.84,0.28,1.9-0.83,2.25C457.92,462.88,457.39,462.08,456.98,461.26z"/>
<path class="st10" d="M322.23,222.03c0-0.64-0.01-1.27-0.01-1.91c-1.42-1.01-0.36-2.63-0.95-3.84c-0.34-4-1.02-7.93-2.18-11.78
	c-0.33-1.11-0.16-2.36-0.22-3.55c-0.87-1.02-1.07-2.14-0.49-3.37c0-0.15-0.01-0.3-0.01-0.45c-1.22-0.87-1.41-2.04-0.93-3.38
	c0-0.47,0-0.95-0.01-1.42c-1.82-0.91-0.31-2.64-0.95-3.85c0-0.16,0-0.32,0-0.48c-0.57-0.89-0.97-1.81-0.48-2.88
	c0-0.48-0.01-0.95-0.01-1.43c-1.54-0.98-0.32-2.64-0.95-3.84c0-0.64-0.01-1.27-0.01-1.91c-0.48-0.38-0.46-0.92-0.47-1.45
	c0-0.32,0-0.64-0.01-0.96c-0.55-0.72,0.12-1.69-0.47-2.4c-0.6-4.67-2.11-9.18-2.4-13.9c-0.67-0.7-0.41-1.59-0.49-2.41
	c-0.01-0.53,0.09-1.09-0.47-1.44c-0.48-1.07-0.33-2.23-0.47-3.35c0-0.32,0-0.64-0.01-0.96c-0.25-0.21-0.4-0.48-0.46-0.81
	c-0.09-0.51-0.19-1.02-0.26-1.54c0-0.22,0.08-0.4,0.23-0.55c0-0.32,0-0.63,0-0.95c-0.68-1.02-1.6-1.97-0.95-3.36
	c0.49-0.64-0.23-1.27-0.01-1.91c-0.74-0.87-1.03-1.81-0.48-2.89c-0.16-0.64-0.32-1.28-0.47-1.91c-0.8-0.67-0.19-1.63-0.48-2.4
	c0-1.14,0.03-2.29-0.48-3.36c-0.36-0.97-0.38-1.94,0.01-2.9c1.35,4,1.6,8.21,2.35,12.32c1.58,8.74,3.02,17.5,4.49,26.26
	c1.73,10.32,3.41,20.64,5.18,30.95c1.12,6.57,2.4,13.1,3.54,19.67c1.71,9.84,3.41,19.69,5.02,29.55c0.84,5.16,2.1,10.26,2.43,15.5
	c0.33,0.44,0.23,0.92,0.13,1.41c-0.46,0.22-0.67,0.09-0.62-0.42c0-0.48-0.01-0.96-0.01-1.44c-1.12-1.08-0.6-2.57-0.95-3.84
	c-0.26-2.67-0.64-5.3-1.16-7.95c-0.47-2.39-1.27-4.73-1.45-7.25c-0.11-1.57-0.71-3.25-0.76-4.94c-0.88-1.02-0.9-2.16-0.48-3.36
	c0-0.31,0-0.63-0.01-0.94c-1.77-0.93-0.93-2.49-0.94-3.85c0-0.16,0-0.32,0-0.48C322.35,227.3,322.38,224.65,322.23,222.03z"/>
<path class="st11" d="M291.05,450.76c-1.13-1.47-1.84-3.15-2.46-4.88c-0.57-1.59-1.48-2.42-3.36-2.4
	c-7.11,0.1-14.22,0.08-21.33,0.01c-1.43-0.01-2.15,0.5-2.73,1.75c-2.34,5.14-4.85,10.21-7.1,15.39c-0.69,1.58-1.47,2.28-3.17,2.1
	c-1.11-0.11-2.24,0-3.35-0.04c-0.58-0.02-1.26-0.08-0.63-0.95c0.32-0.4,0.65-0.79,1.22-0.82c2.43,0.61,3.71-0.59,4.98-2.58
	c2.07-3.26,3.32-6.83,4.74-10.35c0.42-1.04,0.93-2.03,1.43-3.03c1.26-2.56,3.17-3.66,6.14-3.57c6.46,0.19,12.94,0.04,19.41,0.07
	c3.15,0.01,4.31,0.85,5.17,3.89c0.45,1.6,1.57,3,1.44,4.77C291.38,450.38,291.25,450.59,291.05,450.76z"/>
<path class="st8" d="M155.38,103.12c-0.94,2.8-1.14,5.72-1.44,8.63c-0.59,0.89,0.49,2.05-0.48,2.88c0,0.32,0,0.64,0,0.96
	c-0.63,1.2,0.6,2.87-0.95,3.84c0,0.32,0,0.64-0.01,0.95c0.08,1.15,0.55,2.36-0.48,3.36c-0.56,0.35-0.46,0.91-0.48,1.44
	c0.72,1.11,0.17,2-0.48,2.88c0,0.32,0,0.64-0.01,0.95c0.38,1.45,0.04,2.73-0.95,3.84c0,0.32,0,0.64,0,0.95
	c0.53,0.94,0.08,1.68-0.48,2.4c0,0.32,0,0.64-0.01,0.95c-0.72,0.44,0.47,1.86-0.98,1.92c0.49-5.61,1.72-11.11,2.63-16.66
	c1.65-10.01,3.37-20,5.07-30c0.64-3.75,1.32-7.49,1.91-11.25c0.17-1.05,0.63-1.51,1.69-1.59c3.39-0.26,6.76-0.69,10.15-0.86
	c5.48-0.27,10.96-0.38,16.45-0.55c-1.14,0.88-2.6,0.82-3.83,0.88c-5.53,0.28-11.09-0.16-16.58,1.01c-1.66,0.35-3.55-0.18-5.11,0.36
	c-1.2,0.41-2.41,1.76-2.04,3.4c0.23,1.04,0.15,1.81-0.49,2.64c-1.14,1.5-0.85,3.6-0.88,5.08c-0.05,2.02-1.15,3.52-1.27,5.35
	c0.48,0.93-0.3,1.6-0.48,2.4c0,0.32,0,0.64-0.01,0.96C155.24,101.13,155.98,102.24,155.38,103.12z"/>
<path class="st12" d="M220.62,93.58c-0.15-0.43-0.68-0.96-0.27-1.31c1.88-1.62,2.63-4.34,5.29-5.25c1.47-0.5,1.46-2.27,2.26-3.35
	c1.32-1.78,2.94-3.34,4.42-5c0.57-0.63,1.38-1.13,1.29-2.19c-2.16-0.76-4.22,0.41-6.33,0.27c-8.85-0.62-17.62,1.03-26.46,1.11
	c-4.43,0.04-8.9,0.17-13.35,0.31c0.36-0.14,0.72-0.38,1.08-0.4c4.13-0.2,8.26-0.33,12.38-0.56c10.86-0.6,21.71-1.24,32.57-1.83
	c0.89-0.05,2.13-0.58,2.61,0.4c0.39,0.81-0.61,1.51-1.19,2.16c-4.19,4.68-8.36,9.36-12.56,14.02
	C221.85,92.56,221.21,93.05,220.62,93.58z"/>
<path class="st13" d="M191.33,137.61c-0.59,1.99-2.26,3.22-3.51,4.69c-4.48,5.24-9.18,10.28-13.55,15.65
	c-2.56,3.14-5.58,6.01-8.29,9.09c-5.94,6.74-12.02,13.34-18.03,20.02c-1.71,1.9-1.1,3.73,1.82,6.01c1.72,1.34,3.71,2.43,4.63,4.58
	c-3.26-2.03-5.73-4.99-8.73-7.33c-0.73-0.57-0.18-1.3,0.31-1.87c1.65-1.93,3.27-3.89,4.96-5.8c6.58-7.45,13.16-14.9,19.77-22.32
	c5.45-6.11,10.97-12.15,16.41-18.26C188.47,140.54,189.5,138.7,191.33,137.61z"/>
<path class="st14" d="M207.65,434.42c2.15-1.73,3.01-1.5,5.27,1.44c-0.16,0.23-0.33,0.23-0.51,0.01c-1.02-0.93-2.23-1.4-3.49-0.79
	c-1.28,0.62-0.74,1.98-0.75,3.03c-0.04,8.04-0.04,16.08-0.04,24.12c-0.07,0.03-0.14,0.09-0.22,0.1c-5.77,0.69-5.77,0.68-5.77-4.99
	c0-17.09,0-34.19,0-51.28c0-3.03,0.01-3.03,3.1-3.03c4.95,0,9.9-0.02,14.86,0.03c0.65,0.01,1.66-0.58,1.94,0.68
	c-0.96,0-1.92,0.01-2.88,0.01c-3.95,0.8-7.94,0.39-11.91,0.47c-3.55,0.07-3.67,0.16-3.67,3.59c0,17.01,0,34.02,0,51.04
	c0,2.96,0,2.96,3.12,2.44h0c0.49-1.71,0.23-3.47,0.23-5.2c-0.01-6.51,0.14-13.02-0.09-19.53
	C206.8,435.65,207.05,435.01,207.65,434.42z"/>
<path class="st15" d="M142.44,179.36c1.66-0.79,2.76-2,3.99-3.46c3.2-3.81,6.14-7.95,10.05-11.08c1.08-0.86,1.39-2,2.18-2.9
	c1.61-1.84,3.77-3.37,5.05-5.18c1.51-2.16,3.29-3.99,5.04-5.83c1.9-1.99,3.07-4.57,5.29-6.27c0.62-0.47,1.04-1.24,1.96-1.23
	c-0.26,1.8-2.23,2.35-2.85,3.88c-1.31,2.62-3.67,4.37-5.53,6.53c-6.68,7.76-13.6,15.33-20.41,22.98c-1.37,1.54-2.51,3.29-4.23,4.5
	c-0.62,0.65-1.17,0.86-1.23-0.34C141.72,180.35,141.91,179.76,142.44,179.36z"/>
<path class="st16" d="M261.36,94.01c-1.44-0.16-2.56-0.44-1.44,1.82c1.82,3.66,1.79,7.98,3.83,11.6c1.81,3.21,3.49,6.51,4.28,10.11
	c1.25,5.68,4.36,10.52,6.54,15.78c0.51,1.22,1.53,2.38,0.68,3.85c-0.17,0.23-0.34,0.24-0.52,0.02c-2.05-4.99-4.15-9.96-6.14-14.97
	c-3.73-9.39-7.39-18.8-11.08-28.2c-0.13-0.2-0.23-0.41-0.26-0.65c-0.07-0.58-0.84-1.17-0.18-1.73c0.74-0.63,1.27,0.18,1.87,0.48
	C259.59,92.95,260.88,92.95,261.36,94.01z"/>
<path class="st17" d="M415.24,403.73c-1.89-0.07-1.42,1.34-1.42,2.35c-0.02,11.58-0.01,23.15-0.01,34.73
	c0,6.23,0.11,12.46-0.04,18.68c-0.08,3.6,2.49,1.91,4.01,2.24c2.23,0.49,1.26-1.36,1.26-2.14c0.06-13.09,0.03-26.19,0.08-39.28
	c0-0.73-0.85-2.62,1.39-1.72c-1.47,0.32-0.91,1.51-0.92,2.34c-0.03,12.93-0.01,25.86-0.05,38.79c0,0.95,0.61,2.43-0.6,2.78
	c-1.65,0.47-3.51,0.52-5.17-0.06c-0.82-0.29-0.43-1.44-0.43-2.2c-0.02-16.12-0.01-32.24-0.01-48.36c0-2.47,0-4.95,0-7.42
	c0-0.58,0.06-1.18,0.64-1.44C414.62,402.71,414.98,403.19,415.24,403.73z"/>
<path class="st13" d="M254.15,111.28c-1.26-0.13-1.56-1.49-1.61-2.09c-0.21-2.64-1.83-4.75-2.35-7.27
	c-0.57-2.73-1.48-5.46-3.05-7.85c-2.32-3.51-2.7-7.8-4.72-11.44c-0.21-0.38,0.09-1.04,0.23-2.16c-4.68,5.13-8.45,10.4-13.46,14.49
	c0.74-2.01,2.46-3.29,3.8-4.81c2.63-2.97,5.34-5.89,7.89-8.93c0.81-0.97,1.66-1.94,2.47,0.19c3.71,9.73,7.5,19.43,11.26,29.14
	c0.08,0.21,0.05,0.47,0.07,0.71C254.51,111.42,254.33,111.42,254.15,111.28z"/>
<path class="st18" d="M222.03,403.73c-0.64-0.71-1.49-0.45-2.26-0.46c-4.87-0.02-9.75,0.09-14.62-0.06c-2.3-0.07-2.82,0.8-2.81,2.94
	c0.07,17.74,0.08,35.48-0.01,53.21c-0.01,2.31,0.61,3.21,2.92,2.89c0.94-0.13,1.91-0.02,2.87-0.02c-1.7,1.04-3.56,0.33-5.34,0.43
	c-0.69,0.04-0.88-0.57-0.88-1.19c-0.01-0.56-0.01-1.12-0.01-1.67c0-17.94,0-35.89,0-53.83c0-3.2,0.01-3.2,3.18-3.2
	c5.26,0,10.53-0.08,15.79,0.05c2.93,0.07,5.87,0.32,8.65,1.41c0.81,0.32,1.69,0.54,2.13,1.41c-1.21-0.02-2.1-1.14-3.37-0.94
	c-1.73-0.5-3.62-0.08-5.28-0.95C222.67,403.74,222.35,403.73,222.03,403.73z"/>
<path class="st19" d="M274.72,137.18c0.17-0.01,0.35-0.01,0.52-0.02c1.53,4.47,3.45,8.74,5.73,12.89c1.12,2.04,1.31,4.56,2.04,6.83
	c0.99,3.09,2.5,5.95,3.96,8.85c0.84,1.67,1.39,3.51,1.92,5.31c1.14,3.81,2.61,7.5,4.1,11.18c0.65,0.48,0.54,1.33,0.96,1.92v0
	c0.55,0.35,0.14,1.02,0.48,1.44c0,0.16,0,0.31,0.01,0.47c0.28,0.35,0.25,0.69-0.03,1.02c-2.63-5.09-4.44-10.54-6.57-15.84
	c-4.28-10.63-8.37-21.33-12.52-32.01C275.06,138.57,274.92,137.87,274.72,137.18z"/>
<path class="st20" d="M346.67,418.09c1.43-4.75,3.8-9.11,5.7-13.67c0.6-1.44,5.25-2.38,6.4-1.42c0.53,0.44,0.43,1.02,0.18,1.53
	c-3.57,7.3-6.08,15.06-9.84,22.27c-0.18-0.14-0.31-0.32-0.4-0.53c-0.04-1.59,0.43-3.02,1.35-4.31c0.37-0.51,0.66-1.06,0.83-1.66
	c0.05-0.21,0.12-0.41,0.19-0.61c0.48-1.42,1.03-2.82,1.67-4.18c0.09-0.18,0.2-0.36,0.31-0.54c0.38-0.63,0.54-1.32,0.59-2.04
	c0.66-2.13,1.76-4.07,2.56-6.14c0.21-0.54,0.82-1.19,0.06-1.7c-0.66-0.45-1.4-0.22-2.01,0.23c-0.67,0.48-1,1.23-1.35,1.95
	c-1.55,3.24-3.3,6.37-4.54,9.75c-0.29,0.8-0.54,1.74-1.72,1.66C346.49,418.48,346.49,418.28,346.67,418.09z"/>
<path class="st21" d="M276.7,167.84c-1.84,0.34-1.98-1.62-2.11-2.28c-0.53-2.61-2.6-4.61-2.68-7.3c-0.09-2.9-1.64-5.35-2.74-7.83
	c-0.93-2.1-1.78-4.31-2.99-6.33c-1.16-1.93-2.13-4.04-1.5-6.44c-0.73-0.21-0.68-0.94-0.95-1.45c0-0.32-0.01-0.63-0.01-0.95
	c-0.73-0.52-0.96-1.16-0.45-1.97c2.11,3.66,3.27,7.72,4.76,11.64C270.94,152.55,274.22,160.05,276.7,167.84z"/>
<path class="st22" d="M142.44,179.36c0.65,0.51-1.89,1.92,0.54,1.93c-0.27,0.84-0.61,1.93-1.65,1.55c-0.74-0.28-0.1-1.25,0.02-1.93
	c2.14-12.81,4.25-25.62,6.42-38.42c0.19-1.14,0.18-2.37,0.88-3.4c0.81-0.39,0.21-1.51,0.98-1.92c1.15,2.58-1.17,4.49-1.35,6.88
	c-0.2,2.66-1.02,5.28-1.05,7.98c-0.56,1.39,0.02,3.02-0.96,4.32c0,0.48,0,0.96,0,1.44c-0.52,1.07,0.47,2.35-0.48,3.36
	c-0.56,0.35-0.46,0.91-0.48,1.44c0.5,1.21-0.01,2.28-0.48,3.36c0,0.16,0,0.32,0,0.48c-0.27,1.14,0.5,2.56-0.95,3.36
	c0,0.48,0,0.95,0,1.43c0.49,1.07,0.09,1.99-0.48,2.88c0,0.16,0,0.32,0,0.48c-0.54,1.06,0.41,2.54-0.95,3.36
	C142.44,178.4,142.44,178.88,142.44,179.36z"/>
<path class="st23" d="M319.82,251.76c2.27,1.82,2.97,4.58,4.02,7.07c2.09,5,2.77,10.55,5.84,15.18c0.9-0.19,0.48-1.31,1.18-1.64
	c1.38,3.07,1.81,6.28,1.49,9.61c-1.79-2.17-2.3-4.82-3.43-7.21c-1.36-0.96-1.31-2.64-1.87-3.97c-2.5-5.99-4.79-12.06-7.13-18.1
	C319.81,252.42,319.85,252.07,319.82,251.76z"/>
<path class="st24" d="M292.99,211.48c0-0.32,0-0.64-0.01-0.95c-0.95-0.33-0.48-1.36-0.95-1.92c-0.97-2.08-2-4.15-2.9-6.26
	c-1.65-3.86-3.31-7.73-3.82-11.95c-0.14-0.12-0.19-0.24-0.13-0.36c0.05-0.11,0.11-0.17,0.16-0.17c2.12,3.84,3.26,8.07,4.85,12.13
	c2.96,7.55,5.93,15.1,8.88,22.65c0.14,0.36,0.12,0.78,0.18,1.17c0.12,0.13,0.16,0.25,0.11,0.36c-0.05,0.11-0.09,0.17-0.14,0.17
	c-1.66-1.57-2.12-3.74-2.87-5.76c-1.25-0.97-0.55-2.92-1.92-3.84v0C294.29,214.9,293.19,213.31,292.99,211.48z"/>
<path class="st21" d="M183.67,134.77c0.4-1.42,1.09-2.72,2.33-3.49c3.09-1.9,4.28-5.43,6.8-7.76c4.23-3.89,6.96-9.07,11.33-12.81
	c0.65-0.55,1.11-1.42,2.15-1.31c-0.03,0.15-0.05,0.29-0.08,0.44c-0.79,1.27-2.15,2.06-2.86,3.4c-6.1,7.43-12.53,14.58-19.14,21.56
	C184.02,135.04,183.84,135.03,183.67,134.77z"/>
<path class="st25" d="M346.67,418.09c0.01,0.17,0.02,0.35,0.03,0.52c0.71,1.27-0.39,2.22-0.58,3.33c-0.54,1.15-1.16,2.27-1.37,3.55
	c-3.57,7.25-5.74,15.1-9.62,22.21c-0.67,1.23-1.27,2.57-3.03,1.38c-1.57-1.95-1.77-4.49-2.9-6.63c-0.13-0.3-0.23-0.61-0.32-0.93
	c-0.16-0.6-0.41-1.16-0.67-1.71c-0.12-0.28-0.21-0.56-0.3-0.85c-0.16-0.58-0.45-1.1-0.83-1.57c-0.58-0.73-0.98-1.48-0.28-2.35
	c0.09-0.06,0.19-0.12,0.28-0.18c2.51,4.14,3.76,8.86,6.03,13.48c2.2-3.51,3.4-7.14,4.9-10.61c2.62-6.07,5.17-12.17,7.78-18.24
	C345.99,418.98,346.37,418.55,346.67,418.09z"/>
<path class="st22" d="M319.86,432.5c-3.36-7.91-6.73-15.82-10.09-23.73c-0.59-1.39-1.17-2.79-1.72-4.19
	c-0.48-1.22-0.04-1.71,1.28-1.82c4.38-0.35,4.71-0.16,6.2,4.32c0.26,0.28,0.24,0.6,0.15,0.93c-0.18,0.15-0.38,0.2-0.61,0.16
	c-0.28-0.19-0.43-0.47-0.55-0.78c-0.21-0.59-0.46-1.16-0.8-1.69c-0.12-0.18-0.23-0.36-0.34-0.54c-1.09-1.4-2.58-0.63-4.24-0.94
	c0.99,1.69,1.58,3.2,2.2,4.69c0.1,0.2,0.18,0.4,0.25,0.61c0.17,0.52,0.34,1.04,0.59,1.54c0.98,2.65,2.38,5.12,3.32,7.78
	c0.37,1.17,0.89,2.28,1.61,3.28c2.29,3.05,3.02,6.61,3.37,10.3C320.29,432.61,320.09,432.64,319.86,432.5z"/>
<path class="st16" d="M285.33,424.79c2.66,4.52,4.42,9.47,6.65,14.2c1.58,3.36,3.54,6.57,4.38,10.25c0.3,1.13,1.04,2.12,1.06,3.34
	c-1.23,0.77-1.48-0.37-1.91-1.03c-1.49-2.27-2.23-4.92-3.06-7.41c-1.21-3.61-3.52-6.56-4.97-9.99c-0.98-2.33-2.32-4.5-2.79-7.04
	c-0.12-0.67-0.1-1.24,0.16-1.84C284.98,425.07,285.13,424.91,285.33,424.79z"/>
<path class="st26" d="M299.21,226.35c0.01-0.18,0.02-0.36,0.03-0.53c2.32,3.74,3.3,8.05,4.96,12.06c2.91,7.04,5.55,14.18,8.29,21.29
	c0.14,0.36,0.12,0.78,0.18,1.17c0.13,0.12,0.16,0.24,0.11,0.36c-0.05,0.11-0.09,0.17-0.14,0.17c-1.42-0.89-1.63-2.39-1.91-3.85
	c-0.55-0.35-0.14-1.02-0.48-1.44c0-0.16,0-0.31,0-0.47c-0.89-0.36-0.51-1.35-0.96-1.92c-1.54-4.02-2.65-8.29-4.76-11.99
	c-1.91-3.35-2.71-7.06-4.38-10.45C299.6,229.64,299.65,227.81,299.21,226.35z"/>
<path class="st27" d="M315.04,408.05c0.16,0,0.32,0,0.47,0c1.5,1.83,1.81,4.21,2.9,6.23c2.27,4.87,4.56,9.73,6.22,14.85
	c0.52,1.42,0.92,2.88,1.56,4.25c-1.13,0.88-1.76,0.26-2.12-0.79c-1.2-3.52-3.08-6.76-4.07-10.39c-1.01-3.69-3.45-6.81-4.86-10.37
	c-0.32-0.81-0.83-1.57-0.91-2.46C314.19,408.79,314.01,408.03,315.04,408.05z"/>
<path class="st22" d="M350.52,359.63c0-0.48-0.01-0.95-0.01-1.43c-0.76-0.51-0.93-1.16-0.46-1.96c1.88,3.21,2.71,6.86,4.18,10.25
	c0.53,1.21,1.02,2.46,1.55,3.69c0.59,1.17,0.82,2.47,1.42,3.64c0.47,0.91,0.3,1.52-0.93,1.15c-2.63-2.64-5.76-4.74-8.18-7.61
	c-0.25-0.19-0.24-0.37,0.03-0.54c2.58,0.29,3.54,2.62,5.15,4.12c0.41,0.38,0.47,1.29,1.32,0.42c0.62-0.64,0.66-0.92-0.22-1.3
	c-0.71-0.31-0.55-1.25-0.98-1.8c-0.38-0.61,0.1-1.65-0.96-1.92c0.22-0.73,0.21-1.41-0.48-1.92c-0.42-0.59-0.02-1.59-0.96-1.92
	c0.16-0.48,0.32-0.95,0.47-1.43C350.97,360.71,350.5,360.33,350.52,359.63z"/>
<path class="st25" d="M329.9,305.93c-1.29-4.2-3.14-8.16-4.99-12.12c-2.21-4.73-3.28-9.85-5.09-14.71
	c-0.06-0.09-0.11-0.18-0.17-0.27c0.07-0.08,0.13-0.16,0.2-0.24c3.32,7.02,5.71,14.41,8.64,21.58c2.06,5.06,3.84,10.23,5.75,15.34
	c-0.17,0.17-0.33,0.18-0.51,0.01c-1.14-0.24-0.57-1.32-0.95-1.93c-0.45-1.08-1.32-2.05-0.97-3.36c-0.82-0.59-1.46-1.25-0.96-2.38
	C329.8,307.58,330.39,306.49,329.9,305.93z"/>
<path class="st28" d="M294.4,187.08c0.01-0.34,0.02-0.68,0.03-1.02c1.34,0.08,1.34,1.52,1.5,2.13c1.19,4.42,2.89,8.56,4.89,12.69
	c2.21,4.56,3.44,9.6,5.1,14.43c-0.16,0.24-0.33,0.23-0.51,0.01c-2.25-4.2-3.54-8.79-5.32-13.17
	C298.07,197.18,295.86,192.27,294.4,187.08z"/>
<path class="st15" d="M263.28,133.28c-0.11,0.72,0.13,1.35,0.45,1.97c-1.83-0.99-1.95-3.1-2.68-4.66c-1.21-2.59-2.3-5.28-3.39-7.95
	c-0.84-2.05-0.96-4.29-1.81-6.37c-0.47-1.16-1.01-2.27-1.67-3.27c-0.46-0.7-0.32-1.14-0.05-1.72c0.18,0,0.35-0.01,0.53-0.01
	c2.22,4.02,3.43,8.47,5.18,12.69C261.13,127.01,262.15,130.17,263.28,133.28z"/>
<path class="st29" d="M257.48,439.2c0.62-2.83,2.16-5.28,3.33-7.88c3.65-8.11,7.5-16.13,11.29-24.17c0.33-0.71,0.8-1.36,1.2-2.03
	c0.4,0.28,0.44,0.69,0.4,1.13c-0.03,0.21-0.09,0.4-0.17,0.6c-0.22,0.46-0.45,0.91-0.65,1.38c-0.08,0.19-0.17,0.37-0.27,0.55
	c-0.31,0.55-0.52,1.13-0.66,1.74c-3.17,6.53-5.63,13.39-9.26,19.71c-0.93,1.94-1.67,3.97-2.58,5.92c-0.55,1.19-0.82,2.64-2.3,3.18
	C257.7,439.28,257.59,439.24,257.48,439.2z"/>
<path class="st30" d="M328.92,274.77c1.55,1.97,1.81,4.52,3.5,6.59c-0.52-3-1.04-6-1.56-9c0-0.48-0.01-0.95-0.01-1.43
	c-1.65-2.05-1.64-4.33-0.96-6.71c0.01-0.49,0.01-0.98,0.02-1.47c1.29,4.13,1.54,8.45,2.39,12.67c0.31,1.54,0.63,3.08,0.95,4.62
	c0.33,1.77,0.74,3.52,0.82,5.33c0.02,0.56,0.17,1.22-0.55,1.34c-0.7,0.11-0.83-0.55-1.01-1.09c-0.2-0.6-0.38-1.2-0.67-1.76
	c-0.31-2.36-1.7-4.35-2.31-6.6C329.29,276.44,329.12,275.6,328.92,274.77z"/>
<path class="st31" d="M291.05,450.76c0.01-0.17,0.02-0.35,0.02-0.52c1.6,0.28,2.39,1.5,2.83,2.83c0.75,2.29,2.26,4.21,2.96,6.52
	c0.29,0.95,1.14,1.43,2.06,1.3c1.22-0.17,0.39-1.12,0.47-1.73c0.07-0.56,0.19-1.1,0.54-1.56c0.09-0.07,0.18-0.13,0.28-0.19
	c0.18,0.25,0.44,0.48,0.54,0.76c0.51,1.38,2.26,2.84,1.48,4.03c-0.85,1.3-2.94,0.33-4.48,0.51c-0.99,0.12-1.65-0.33-2.05-1.26
	C294.17,457.87,292.61,454.32,291.05,450.76z"/>
<path class="st23" d="M285.33,189.87c-0.01,0.17-0.02,0.35-0.03,0.52c-1.79-2.14-2.79-4.72-3.64-7.29
	c-0.25-0.76-0.72-1.75-0.99-2.19c-2.15-3.53-1.51-8.04-4.16-11.31c-0.53-0.65-0.04-1.19,0.19-1.76c2.28,4.01,3.45,8.47,5.21,12.68
	C283.18,183.58,284.2,186.75,285.33,189.87z"/>
<path class="st16" d="M285.33,424.79c-0.01,0.18-0.02,0.35-0.03,0.53c-1.17,0.36-1.45-0.52-1.91-1.29
	c-3.11-5.14-5.25-10.7-7.27-16.32c-0.21-0.58-0.22-1.08,0.29-1.51c0.11-0.04,0.21-0.08,0.32-0.11
	C280.04,412.12,282.72,418.44,285.33,424.79z"/>
<path class="st22" d="M319.86,432.5c0.15,0,0.31,0,0.46,0c1.36-0.1,1.7,1.06,2.09,1.91c1.56,3.35,3.58,6.49,4.08,10.31
	c0.27,2.04,1.48,3.83,2.57,5.59c0.51,0.82,1.12,1.71-0.27,2.33c-0.12,0.01-0.23,0.01-0.35,0.02c-2.32-4.18-3.79-8.73-5.71-13.09
	C321.73,437.23,320.82,434.86,319.86,432.5z"/>
<path class="st16" d="M335.67,458.41c-0.11,0.38-0.16,0.8-0.36,1.13c-0.68,1.08-0.52,3.1-2.25,3c-1.4-0.09-1.53-1.87-2-2.98
	c-0.97-2.26-1.75-4.6-2.6-6.9c0,0,0.06-0.03,0.06-0.03c2.49-0.35,2.77,1.72,3.42,3.25c0.46,1.08,0.53,2.33,1.5,3.21
	c0.77-0.46,0.98-1.88,2.28-1.27C335.85,458.03,335.84,458.23,335.67,458.41z"/>
<path class="st32" d="M342.83,338.07c-1.92-2.7-2.94-5.82-4.25-8.82c-1.66-3.82-2.57-7.88-3.89-11.8c-0.11-0.12-0.15-0.24-0.1-0.36
	c0.05-0.11,0.09-0.17,0.13-0.17c2.35,3.88,3.3,8.34,5.12,12.43c1.18,2.66,2.02,5.47,3.02,8.21c0.13,0.12,0.18,0.24,0.12,0.35
	C342.92,338.02,342.87,338.07,342.83,338.07z"/>
<path class="st33" d="M234.97,429.14c0.68-1.94,1.94-3.6,2.24-5.79c0.13-0.96,0.04-1.9,0.16-2.83c0.39-1.12,0.39-2.24,0-3.36
	c0-0.32,0-0.64,0-0.96c-0.25-1.85-0.67-3.65-1.53-5.32c-0.31-0.6-1.01-1.11-0.38-1.89c1.97,1.3,2.51,3.45,2.95,5.5
	c0.95,4.43,0.73,8.8-1.61,12.85C236.37,428.09,235.8,428.76,234.97,429.14z"/>
<path class="st34" d="M349.07,426.26c0.01,0.18,0.02,0.36,0.03,0.54c-1.85,5.03-3.94,9.97-6.24,14.82c-0.2,0.16-0.4,0.14-0.59-0.02
	c0.15-3.58,0.92-6.98,2.86-10.04c0.85-1.34,1.39-2.84,2.13-4.23C347.67,426.57,348.07,425.94,349.07,426.26z"/>
<path class="st35" d="M298.71,324.16c2.25,0.39,3.47,2.03,4.98,3.58c2.86,2.93,6.02,5.59,9.29,8.05c1.67,1.25,2.58,3.22,4.46,4.17
	c0.14,0.12,0.19,0.25,0.14,0.36c-0.05,0.12-0.1,0.17-0.15,0.17c-2.04-0.72-3.14-2.6-4.7-3.91
	C307.93,332.6,303.13,328.59,298.71,324.16z"/>
<path class="st24" d="M342.36,441.61c0.16,0,0.33,0.01,0.5,0.01c-2.23,5.67-4.41,11.36-7.19,16.8c-0.01-0.17-0.02-0.34-0.02-0.51
	c-0.85-1.01-0.08-2,0.13-2.94c1-4.42,3.11-8.39,5.23-12.34C341.28,442.11,341.48,441.37,342.36,441.61z"/>
<path class="st36" d="M247.91,461.27c-0.33,0.16-0.66,0.31-0.99,0.47c3.4-7.57,6.52-15.27,10.56-22.54c0,0,0.05,0.03,0.05,0.03
	c0.26,0.24,0.37,0.55,0.37,0.9c-0.01,0.23-0.06,0.45-0.13,0.66c-0.26,0.62-0.58,1.23-0.85,1.85c-2.63,5.45-4.27,11.34-7.5,16.51
	C248.97,459.9,248.69,460.76,247.91,461.27z"/>
<path class="st37" d="M312.66,233.04c3.63,5.77,5.69,12.13,7.16,18.73c-2.32-4.06-3.54-8.58-5.25-12.89
	c-0.69-1.74-1.82-3.35-1.95-5.3c-0.13-0.13-0.16-0.25-0.11-0.36C312.56,233.1,312.61,233.04,312.66,233.04z"/>
<path class="st26" d="M227.27,455.53c1.92,1.25,3.22,3.09,4.44,4.96c0.84,1.3,3.41,1.66,5.74,0.63c-0.6-1.28-1.74-2.26-1.98-3.72
	c1.56,1.36,3.85,3.4,3.33,4.74c-0.57,1.48-3.55,0.34-5.46,0.55c-0.57,0.06-1.14-0.07-1.47-0.59
	C230.42,459.85,228.38,458.02,227.27,455.53z"/>
<path class="st38" d="M200.91,238.35c1.96,0.75,3.66,1.77,5.05,3.49c1.54,1.91,3.89,3.05,5.43,5.05c0.38,0.5,0.79,0.96,1.04,1.54
	c-2-0.48-2.98-2.28-4.37-3.5C205.62,242.8,202.88,240.99,200.91,238.35z"/>
<path class="st39" d="M342.83,338.07c0.01-0.17,0.02-0.34,0.03-0.51c2.32,4.8,4.01,9.85,5.76,14.87c-0.16,0.16-0.33,0.15-0.49,0.01
	c-1.37-2.32-2.25-4.82-3.17-7.35C344.1,342.77,343.75,340.34,342.83,338.07z"/>
<path class="st33" d="M219.66,436.33c-0.65-0.36-1.71-0.5-1.31-1.6c0.28-0.77,0.97-1.42,1.85-1.21c4.09,0.97,7.74-0.2,11.27-2.12
	c0.15-0.08,0.44,0.11,0.67,0.18c-1.91,2.1-4.64,2.13-7.11,2.77c-1.43,0.37-2.95,0.49-4.43,0.49
	C219.27,434.84,219.45,435.51,219.66,436.33z"/>
<path class="st27" d="M213.4,101.21c1.18-3.4,3.33-5.9,6.77-7.17c-1.75,2.69-3.78,5.13-6.25,7.2
	C213.74,101.44,213.56,101.44,213.4,101.21z"/>
<path class="st40" d="M312.66,233.04c-0.01,0.18-0.02,0.35-0.04,0.53c-2.61-5.08-4.41-10.47-6.23-15.85
	c1.98,1.86,2.16,4.6,3.28,6.89C310.96,227.27,311.69,230.22,312.66,233.04z"/>
<path class="st38" d="M257.03,287.23c2.09,1.79,4.67,2.95,6.41,5.2c0.49,0.64,1.09,1.18,2.07,1.38c0.77,0.16,1.77,0.88,1.06,2.12
	c-3.63-2.57-6.85-5.61-10.03-8.7C256.7,287.07,256.86,287.06,257.03,287.23z"/>
<path class="st41" d="M331.83,283.86c0.94,0.57,0.64,1.9,1.65,2.62c0.84-2.26-0.56-4.33-0.23-6.44c1.14,2.53,1,5.36,1.87,7.96
	c0.18,0.54-0.03,1.16-0.63,1.39c-0.69,0.26-1.01-0.25-1.18-0.82C332.82,287,331.8,285.59,331.83,283.86z"/>
<path class="st35" d="M286.22,313.15c2.27,0.3,3.16,2.48,4.8,3.65c2.52,1.8,4.97,3.81,6.73,6.47
	C293.62,320.22,289.71,316.93,286.22,313.15z"/>
<path class="st38" d="M267.52,296.85c0.75,0.24,4.91,3.73,5.6,4.02c2.2,0.92,3.02,3.06,4.53,4.57c-0.15,0.21-0.31,0.22-0.47,0
	C273.9,302.66,270.46,300.03,267.52,296.85z"/>
<path class="st38" d="M325.04,347.2c1.73,0.05,2.21,1.92,3.61,2.47c2.97,1.17,4.69,3.73,6.54,6.12c-0.16,0.21-0.32,0.21-0.48,0
	C331.42,353,327.99,350.37,325.04,347.2z"/>
<path class="st38" d="M257.03,287.23c-0.17,0-0.33,0.01-0.5,0.01c-3.05-2.36-6.04-4.8-8.67-7.65c1.63,0.65,3.22,1.25,4.28,2.89
	c1.09,1.7,3.76,1.72,4.53,3.9C256.77,286.66,256.91,286.94,257.03,287.23z"/>
<path class="st42" d="M202.87,25.44c-4.2-1.1-8.49-1.98-12-4.81C195.07,21.74,199.02,23.47,202.87,25.44z"/>
<path class="st43" d="M234.05,455.51c-3.02-1.74-5.27-4.07-5.77-7.7C230.58,450.09,232.33,452.79,234.05,455.51z"/>
<path class="st23" d="M181.75,221.07c2.05,2.72,6.02,3.16,7.65,6.41c0.21,0.43,0.51,0.8,0.48,1.31c-2.89-2.2-5.75-4.43-8.16-7.18
	C181.48,221.42,181.49,221.24,181.75,221.07z"/>
<path class="st38" d="M212.41,248.42c4.01,0.94,5.72,4.5,8.17,7.21C217.55,253.57,214.78,251.23,212.41,248.42z"/>
<path class="st24" d="M306.9,128.51c0,0.97-0.01,1.94-0.01,2.9c-0.84-1.91-0.95-4.05-1.25-6.01c-0.35-2.26-1.27-3.9-2.57-5.53
	c3.91,0.77,2.9,4.31,3.77,6.77C307.03,127.2,306.89,127.88,306.9,128.51z"/>
<path class="st42" d="M190.88,20.64c-3.19,0.52-3.8,3.69-5.63,5.59c-0.53,0.55-0.84,1.31-1.62,1.61c1.21-2.69,3.03-5,4.7-7.4
	C189.27,19.1,190.08,20.01,190.88,20.64z"/>
<path class="st35" d="M228.24,262.32c1.52,0.11,2.14,1.54,3.24,2.27c1.1,0.73,1.98,1.74,3.28,2.27c0.74,0.3,1.84,0.89,1.15,2.17
	C233.1,267.08,230.41,265,228.24,262.32z"/>
<path class="st16" d="M273.33,406.61c-0.01-0.5-0.02-1-0.03-1.49c0-1.03,0.32-2.03,1.41-2.13c1-0.09,1.35,0.89,1.58,1.76
	c0.12,0.45,0.29,0.89,0.43,1.34c0,0-0.07,0.06-0.07,0.06C275.57,406.44,274.48,406.77,273.33,406.61z"/>
<path class="st29" d="M433.94,426.75c-0.78-1.28-2.09-2.24-2.4-3.82c2.83,2.81,5.58,5.68,7.67,9.1c-1.6-0.16-1.87-1.73-2.69-2.66
	C435.71,428.43,435.01,427.42,433.94,426.75z"/>
<path class="st33" d="M213.4,101.21c0.17,0.01,0.35,0.02,0.52,0.02c-2.15,2.8-4.06,5.84-7.21,7.71
	C208.76,106.21,210.75,103.43,213.4,101.21z"/>
<path class="st29" d="M452.16,446.91c0,0.16,0,0.32-0.01,0.47c-2.41-2.86-5.71-5-7.16-8.67
	C447.66,441.2,449.98,443.99,452.16,446.91z"/>
<path class="st12" d="M235.46,408.98c0.7,1.77,1.37,3.55,2.1,5.31c0.29,0.7,0.48,1.34-0.2,1.91c-1.11-2.89-2.23-5.77-3.34-8.66
	C234.66,407.86,235.15,408.34,235.46,408.98z"/>
<path class="st25" d="M316.48,271.41c-0.16-0.64-0.32-1.27-0.48-1.91c-0.82-0.5-0.95-1.16-0.46-1.97c1.88,3.51,3.16,7.26,4.32,11.05
	c0,0-0.03,0.03-0.03,0.03c-0.92,0.27-0.6-0.67-0.94-0.97c0-0.16,0-0.31-0.01-0.47c-0.89-0.36-0.51-1.35-0.96-1.92
	c-1.15-0.39-0.49-1.23-0.48-1.91C316.55,272.98,316.92,271.99,316.48,271.41z"/>
<path class="st38" d="M317.42,340.51c0.01-0.18,0.01-0.36,0.02-0.54c2.12,1.43,3.61,3.69,6.15,4.59c0.73,0.26,1.03,0.95,0.51,1.73
	C321.61,344.66,319.31,342.82,317.42,340.51z"/>
<path class="st37" d="M221.08,446.88c2.6,2.51,4.51,5.51,6.21,8.66c-2.56-2.34-4.28-5.33-6.22-8.15c-0.14-0.12-0.19-0.24-0.13-0.35
	C220.98,446.93,221.03,446.88,221.08,446.88z"/>
<path class="st44" d="M183.67,134.77c0.18,0.01,0.35,0.02,0.53,0.03c-1.95,2.81-4.14,5.42-6.77,7.63c1.2-2.16,2.52-4.21,4.53-5.75
	C182.63,136.16,183.11,135.41,183.67,134.77z"/>
<path class="st35" d="M221.54,256.55c3.47,0.49,4.53,3.78,6.71,5.78C225.69,260.78,223.55,258.74,221.54,256.55z"/>
<path class="st31" d="M297.3,452.64c-0.44-1.1-1-2.17-0.94-3.4c1.63,2.56,2.99,5.24,3.85,8.16c0,0-0.06,0.05-0.06,0.05
	C298.05,456.48,297.05,454.79,297.3,452.64z"/>
<path class="st32" d="M315.54,267.54c-0.1,0.71,0.14,1.35,0.46,1.97c-0.45-0.05-1.26,0.04-1.19-0.44c0.46-3.07-1.84-5.36-2.17-8.19
	c0.01-0.18,0.02-0.35,0.03-0.53C314.18,262.51,314.87,265.02,315.54,267.54z"/>
<path class="st29" d="M181.75,221.07c-0.01,0.18-0.02,0.36-0.03,0.55c-2.79-1.98-5.48-4.08-7.66-6.76c2.19,1,3.84,2.71,5.56,4.32
	C180.32,219.82,181.04,220.44,181.75,221.07z"/>
<path class="st23" d="M192.76,231.16c2.58,1.51,4.92,3.32,6.75,5.73c-0.16,0.22-0.32,0.21-0.48,0
	C196.81,235.12,194.47,233.48,192.76,231.16z"/>
<path class="st38" d="M243.1,275.27c2.59,0.02,3.69,1.69,4.32,3.89C245.54,278.34,244.37,276.75,243.1,275.27z"/>
<path class="st29" d="M444.99,438.73c-2.19-1.71-4.17-3.6-5.3-6.21C441.81,434.29,443.6,436.33,444.99,438.73z"/>
<path class="st13" d="M449.74,452.65c2.2,1.71,4.2,3.59,5.29,6.24C453.04,457,451.13,455.04,449.74,452.65z"/>
<path class="st45" d="M326.06,433.47c-1.23-1.2-1.39-2.75-1.42-4.34c1.29,1.71,1.93,3.69,2.43,5.73c0,0-0.07,0.06-0.07,0.06
	C325.51,435.2,325.67,434.4,326.06,433.47z"/>
<path class="st22" d="M348.12,352.44c0.16,0,0.33,0,0.49-0.01c0.65,1.21,1.38,2.38,1.44,3.81c-0.1,0.71,0.15,1.34,0.46,1.96
	c-0.15,0.04-0.44,0.12-0.44,0.11C349.41,356.36,348.76,354.4,348.12,352.44z"/>
<path class="st13" d="M154.85,198.08c1.23,0.23,2.23,0.96,3.31,1.52c0.82,0.42,1.18,0.97,0.57,1.82
	C157.1,200.69,155.93,199.44,154.85,198.08z"/>
<path class="st46" d="M215.77,440.19c2.24,1.06,2.78,3.35,3.85,5.26C217.94,443.99,216.64,442.25,215.77,440.19z"/>
<path class="st47" d="M318.41,414.28c-1.59-1.79-1.85-4.19-2.9-6.23c0-0.32,0.01-0.64,0.01-0.97
	C316.79,409.36,318.04,411.65,318.41,414.28z"/>
<path class="st13" d="M441.55,443.07c2.12,1.49,3.83,3.33,4.85,5.75C444.54,447.1,442.84,445.26,441.55,443.07z"/>
<path class="st48" d="M356.27,374.97c0.95-0.09,0.89-0.58,0.57-1.28c-0.51-1.12-1.05-2.24-1.06-3.51c1.14,1.16,1.31,2.77,1.93,4.18
	c0.18,0.41,0.74,1.05,0.01,1.42C357.01,376.12,356.58,375.56,356.27,374.97z"/>
<path class="st49" d="M299.26,117.48c-2.37-0.82-4.52-2-6.25-3.86C295.3,114.57,297.45,115.75,299.26,117.48z"/>
<path class="st37" d="M340.43,360.61c1.78,0.9,3.62,1.72,4.32,3.83C342.95,363.56,341.63,362.15,340.43,360.61z"/>
<path class="st37" d="M336.59,357.25c2.24,0.03,2.94,1.81,3.84,3.36C338.69,360.02,337.71,358.56,336.59,357.25z"/>
<path class="st46" d="M279.06,306.9c1.85,0.59,3.05,2.02,4.33,3.34c0.15,0.12,0.2,0.24,0.14,0.35c-0.05,0.11-0.11,0.17-0.16,0.17
	C281.6,309.86,280.26,308.46,279.06,306.9z"/>
<path class="st50" d="M258.93,92.12c-2.77-1.09-1.2,1.07-1.43,1.9c-0.19-0.23-0.48-0.44-0.56-0.71c-0.26-0.81-1.48-1.75-0.43-2.41
	C257.38,90.35,258.38,91.16,258.93,92.12z"/>
<path class="st35" d="M235.91,269.03c2.03,0.35,2.66,2.53,4.33,3.34c0.14,0.12,0.19,0.24,0.14,0.36c-0.05,0.11-0.1,0.17-0.15,0.17
	C238.32,272.14,237.2,270.49,235.91,269.03z"/>
<path class="st29" d="M170.21,211.5c1.73,0.61,3.1,1.63,3.86,3.36C172.3,214.29,171.36,212.77,170.21,211.5z"/>
<path class="st46" d="M212.41,435.87c0.17,0,0.34-0.01,0.51-0.01c0.92,1.47,2.55,2.46,2.86,4.34
	C214.34,439,213.22,437.55,212.41,435.87z"/>
<path class="st13" d="M446.39,448.82c1.44,1,2.82,2.05,3.35,3.85C448.34,451.63,447.13,450.43,446.39,448.82z"/>
<path class="st44" d="M173.15,147.28c0.18-1.86,2.19-2.38,2.85-3.88c0.16,0,0.32,0,0.49,0C175.96,145.2,174.41,146.11,173.15,147.28
	z"/>
<path class="st13" d="M158.72,201.42c1.85,0.13,2.44,1.71,3.36,2.92C160.53,203.87,159.66,202.6,158.72,201.42z"/>
<path class="st37" d="M348.12,366.82c-0.01,0.18-0.02,0.36-0.03,0.54c-1.54-0.48-2.4-1.75-3.35-2.92
	C346.37,364.53,346.82,366.28,348.12,366.82z"/>
<path class="st38" d="M240.23,272.9c0.01-0.18,0.01-0.35,0.02-0.53c1.06,0.86,2.38,1.48,2.86,2.91
	C241.74,274.98,241.03,273.89,240.23,272.9z"/>
<path class="st33" d="M203.35,113.23c0.3-1.69,1.7-2.44,2.86-3.4C205.83,111.46,204.47,112.24,203.35,113.23z"/>
<path class="st35" d="M283.38,310.76c0-0.17,0.01-0.34,0.01-0.52c0.97,0.65,1.86,1.38,2.37,2.48
	C284.66,312.45,283.99,311.64,283.38,310.76z"/>
<path class="st24" d="M334.71,316.92c-0.01,0.18-0.02,0.35-0.03,0.53c-1.26-0.17-0.86-1.17-0.95-1.92c0.17,0,0.34-0.01,0.51-0.01
	C334.75,315.86,334.7,316.4,334.71,316.92z"/>
<path class="st23" d="M190.34,229.24c1.26,0.07,1.85,0.99,2.43,1.93C191.59,230.99,190.99,230.08,190.34,229.24z"/>
<path class="st13" d="M455.02,458.89c1.16,0.11,1.28,1.02,1.46,1.88C455.68,460.38,455.13,459.8,455.02,458.89z"/>
<path class="st46" d="M277.19,305.44c0.15,0,0.31,0,0.47,0c0.63,0.34,1.14,0.79,1.42,1.47C278.13,306.82,277.6,306.21,277.19,305.44
	z"/>
<path class="st46" d="M221.08,446.88c-0.01,0.17-0.01,0.34-0.02,0.52c-0.73-0.46-1.37-0.99-1.44-1.94
	C220.28,445.75,220.75,446.24,221.08,446.88z"/>
<path class="st37" d="M334.71,355.79c0.16,0,0.32,0,0.48,0c0.64,0.33,1.14,0.79,1.42,1.47
	C335.66,357.17,335.13,356.55,334.71,355.79z"/>
<path class="st38" d="M199.02,236.89c0.16,0,0.32,0,0.48,0c0.64,0.33,1.14,0.79,1.42,1.47
	C199.98,238.26,199.45,237.64,199.02,236.89z"/>
<path class="st40" d="M305.42,215.33c0.17,0,0.34-0.01,0.51-0.01c0.16,0.8,0.31,1.61,0.47,2.41
	C305.66,217.09,305.42,216.26,305.42,215.33z"/>
<path class="st51" d="M333.27,345.22c-2.86-3.35-6.5-5.85-9.73-8.8c-5.64-5.14-11.51-10.04-17.27-15.07
	c-8.76-7.64-17.52-15.28-26.25-22.95c-8.49-7.46-16.94-14.97-25.43-22.44c-5.74-5.04-11.51-10.04-17.26-15.06
	c-0.92-0.84-1.79-1.74-2.83-2.45c-6.21-5.47-12.39-10.97-18.62-16.42c-8.32-7.28-16.7-14.5-25.02-21.78
	c-6.89-6.02-13.71-12.14-20.63-18.13c-4.75-4.11-9.24-8.52-14.31-12.24c-1.3-1.14-0.3-2.06,0.38-2.85c2.51-2.88,5.11-5.69,7.64-8.53
	c2.8-3.15,5.55-6.36,8.32-9.55c4.49-5.18,9.12-10.25,13.63-15.41c5.62-6.42,11.24-12.84,16.96-19.17
	c5.78-6.39,11.4-12.91,17.16-19.32c5.97-6.64,11.93-13.3,17.71-20.11c2.19-1.75,2.55-1.54,3.73,0.9c3.52,7.25,5.5,15.1,8.72,22.44
	c3.03,6.91,5.54,14.02,8.31,21.02c3.82,9.64,7.81,19.23,11.19,29.05c2.36,6.13,4.63,12.3,7.09,18.38
	c2.68,6.62,5.01,13.36,7.77,19.94c2.66,5.92,4.63,12.1,6.96,18.14c0.51,1.33,1.04,2.63,1.75,3.87c1.89,3.42,2.65,7.27,4.1,10.86
	c1.5,3.73,2.95,7.49,4.55,11.17c1.58,3.64,2.4,7.55,4.19,11.1c2.08,4.91,3.92,9.91,5.77,14.91c1.16,4.05,3.38,7.69,4.67,11.65
	c2.49,7.65,5.98,14.89,8.75,22.42c3.92,10.67,7.95,21.29,12.33,31.77c0.22,0.52,0.43,1.03,0.45,1.6c0.25,1.16,0.62,2.28,1.06,3.38
	c0.3,0.76,0.54,1.51-0.25,2.14c-0.7,0.25-1.23-0.06-1.63-0.59C336.11,347.61,334.6,346.51,333.27,345.22z"/>
<path class="st12" d="M237.86,95.49c-2.89,4.01-6.41,7.48-9.64,11.21c-6.93,8-13.95,15.9-20.97,23.82
	c-5.43,6.13-10.92,12.22-16.36,18.35c-7.34,8.27-14.66,16.56-22,24.83c-4.07,4.58-8.14,9.17-12.24,13.71
	c-0.68,0.75-1.3,1.4-0.73,2.47c-1.25-0.13-1.05-0.94-0.82-1.76c0.49-1.74,1.58-3.08,2.81-4.36c5.74-5.94,11.01-12.3,16.37-18.58
	c3.6-4.22,7.45-8.23,11.2-12.32c4.39-4.79,8.74-9.63,12.94-14.56c6.42-7.55,13.2-14.76,19.66-22.26
	c5.44-6.33,11.09-12.47,16.68-18.67c1.32-1.47,2.27-3.29,4.06-4.32C239.53,94.27,238.05,94.63,237.86,95.49z"/>
<path class="st21" d="M237.86,95.49c0.31-0.81,0.63-1.62,0.94-2.43c0.48-0.34,0.96-0.41,1.44,0c1.35,1.32,1.42,3.29,2.4,4.79
	c0.55,0.93,1.31,1.75,1.44,2.88c0,0.16,0,0.32,0,0.48c2.01,2.9,2.64,6.36,3.83,9.59c0.47,3.13,2.05,5.83,3.36,8.63
	c0.56,1.08,1.07,2.19,1.44,3.35c-0.03,0.94,0.2,1.77,0.96,2.4c0.58,0.54,0.2,1.31,0.48,1.92c0.93,4.04,3.39,7.42,4.88,11.19
	c0.95,2.41,2.56,4.62,2.51,7.61c-0.04,2.21,1.14,4.62,2.66,6.45c0.64,0.77,0.62,1.32,0.5,2.08c0.96,1.47,1.87,2.97,1.92,4.8
	c1.48,0.41,1.1,1.65,1.35,2.71c0.51,2.17,1.32,4.27,2.01,6.39c-0.16,0.23-0.34,0.24-0.52,0.02c-4.01-9.08-7.34-18.44-10.97-27.67
	c-5.88-14.96-11.65-29.96-17.4-44.97C240.04,92.99,238.99,94.66,237.86,95.49z"/>
<path class="st33" d="M337.58,344.28c-3.81-9.86-7.64-19.71-11.44-29.57c-3.46-8.97-6.94-17.94-10.35-26.93
	c-1.4-3.69-3.45-7.13-4.15-11.08c0.17-0.21,0.34-0.21,0.52-0.01c1.14,3.36,2.72,6.53,4.16,9.76c1.78,4.01,3.11,8.23,4.39,12.44
	c0.54,1.78,2.36,3.03,2.01,5.12c1.32,1.52,1.65,3.5,2.39,5.28c0,0.16,0,0.32,0,0.48c0.83,0.6,0.5,1.66,0.96,2.4
	c0.89,3.21,2.5,6.12,3.74,9.19c2.26,5.58,4.23,11.28,6.33,16.93c0.28,0.74,0.64,1.45,0.96,2.17c0.65,0.48,0.54,1.33,0.96,1.92l0,0
	c0.55,0.35,0.14,1.02,0.48,1.44c0,0.16,0,0.32,0,0.48c0.27,0.24,0.29,0.54,0.17,0.86c-0.14,0.17-0.32,0.25-0.55,0.21
	C337.74,345.12,337.91,344.56,337.58,344.28z"/>
<path class="st52" d="M305.89,261.84c-2.4-4.42-3.79-9.25-5.65-13.89c-2.54-6.35-4.85-12.79-7.26-19.19
	c-0.31-0.48-0.36-0.97,0.01-1.45c1.97,1.75,2.42,4.29,3.08,6.59c1.15,3.98,2.53,7.8,4.37,11.53c2.16,4.37,3.7,9.03,4.95,13.75
	c0.25,0.94,0.64,1.79,1.02,2.65C306.24,262.05,306.07,262.06,305.89,261.84z"/>
<path class="st25" d="M269.45,168.35c0.17-0.01,0.34-0.01,0.52-0.02c4.12,7.82,5.59,16.73,10.03,24.42c0.77,1.33,1.1,2.91,1.47,4.32
	c0.88,3.31,2.38,6.36,3.36,9.61c-0.16,0.22-0.33,0.24-0.5,0.01c-3.12-6.51-5.28-13.41-8.02-20.07c-2.27-5.51-4.33-11.1-6.47-16.67
	C269.65,169.44,269.58,168.88,269.45,168.35z"/>
<path class="st53" d="M284.33,206.69c0.17,0,0.33-0.01,0.5-0.01c2.26,3.73,3.35,7.93,4.8,11.99c1.04,2.91,1.94,5.86,3.35,8.63
	c0,0.48,0,0.97-0.01,1.45c-1.82-2.83-2.56-6.11-3.82-9.18C287.43,215.33,285.93,210.99,284.33,206.69z"/>
<path class="st52" d="M305.89,261.84c0.17-0.01,0.35-0.01,0.52-0.02c-0.45,1.48,2.33,1.67,1.35,3.37c2.61,3.4,2.78,7.72,4.4,11.49
	c-0.17,0-0.35,0.01-0.52,0.01C309.38,271.88,307.54,266.9,305.89,261.84z"/>
<path class="st31" d="M333.27,345.22c2.19,0.92,3.36,3.08,5.24,4.37c0.84-0.19,0.84-0.19,0.65-1.91c0.06-0.21,0.17-0.38,0.33-0.51
	c0.24,0.49,0.52,0.96,0.72,1.47c0.34,0.83,1.25,1.75,0.14,2.55c-1.09,0.79-1.96,0.03-2.67-0.78
	C336.2,348.68,334.74,346.94,333.27,345.22z"/>
<path class="st12" d="M247.92,110.8c-1.77-3-2.57-6.39-3.83-9.59c2.28,0.38,1.66,2.62,2.36,3.95
	C247.33,106.83,248.28,108.7,247.92,110.8z"/>
<path class="st15" d="M292.99,211.48c1.16,1.57,1.83,3.28,1.44,5.27C293.84,215.02,291.95,213.65,292.99,211.48z"/>
<path class="st21" d="M325.11,309.29c-1.29-1.54-1.52-3.55-2.39-5.28C324.36,305.38,325.16,307.14,325.11,309.29z"/>
<path class="st54" d="M266.62,159.22c-0.64-1.6-1.28-3.2-1.92-4.8C266.24,155.66,267.1,157.18,266.62,159.22z"/>
<path class="st15" d="M294.42,216.75c1.68,0.76,1.36,2.52,1.92,3.84c-0.91-0.55-0.92-0.55-1.19-1.42
	C294.91,218.36,294.67,217.56,294.42,216.75z"/>
<path class="st15" d="M252.71,122.78c-0.88-0.95-1.44-2.03-1.44-3.35C252.53,120.21,252.9,121.38,252.71,122.78z"/>
<path class="st24" d="M331.81,310.24c0.08,1.19,1.16,2.09,0.97,3.36C331.39,312.79,331.18,311.63,331.81,310.24z"/>
<path class="st55" d="M234.5,258.46c1.32,0.37,2.4,1.04,2.83,2.45C235.97,260.57,235.23,259.52,234.5,258.46z"/>
<path class="st12" d="M244.08,100.73c-0.54-0.93-1.39-1.71-1.44-2.88C243.84,98.45,244.47,99.34,244.08,100.73z"/>
<path class="st15" d="M263.74,136.21c0.32,0.48,0.63,0.97,0.95,1.45c-0.42,0.08-0.86,0.64-1.25,0.08
	C263.05,137.18,263.57,136.71,263.74,136.21z"/>
<path class="st24" d="M329.9,305.93c0.32,0.64,0.63,1.29,0.95,1.93C328.32,308.31,330.14,306.61,329.9,305.93z"/>
<path class="st22" d="M352.44,366.34c1.94-0.17,1.02,1.09,0.96,1.92C353.08,367.62,352.76,366.98,352.44,366.34z"/>
<path class="st21" d="M326.07,312.16c-0.65-0.67-0.76-1.55-0.96-2.4C326.64,310.08,325.86,311.32,326.07,312.16z"/>
<path class="st31" d="M338.54,345.24c0-0.32,0-0.64,0-0.96c1.28,0.16,0.87,1.17,0.96,1.92C338.65,346.4,338.63,345.78,338.54,345.24
	z"/>
<path class="st33" d="M338.54,345.24c0.32,0.32,0.63,0.64,0.95,0.96c0,0.32,0,0.63,0.01,0.95c-0.01,0.17-0.01,0.34-0.02,0.51
	c-1.23-0.44-1.38-1.31-0.96-2.41L338.54,345.24z"/>
<path class="st15" d="M254.15,127.1c-0.7-0.5-0.41-1.25-0.48-1.92C254.69,125.6,254.64,126.3,254.15,127.1z"/>
<path class="st22" d="M350.52,359.63c0.32,0.48,0.64,0.96,0.96,1.45C350.76,360.85,349.67,360.88,350.52,359.63z"/>
<path class="st15" d="M292.03,208.6c0.32,0.64,0.64,1.28,0.95,1.92C291.03,210.69,292.5,209.17,292.03,208.6z"/>
<path class="st31" d="M338.05,342.37c-0.62-0.49-0.88-1.16-0.96-1.92C338.37,340.61,337.97,341.61,338.05,342.37z"/>
<path class="st32" d="M318.88,277.64c0.31,0.32,0.63,0.65,0.94,0.97c0,0.16,0,0.32,0,0.48C318.9,279,318.34,278.68,318.88,277.64z"
	/>
<path class="st56" d="M310.25,255.59c0.56,0.34,0.46,0.91,0.48,1.44C309.47,256.91,309.98,256.21,310.25,255.59z"/>
<path class="st31" d="M338.53,343.81c-0.56-0.35-0.46-0.91-0.48-1.44C339.31,342.48,338.79,343.19,338.53,343.81z"/>
<path class="st12" d="M240.25,93.06c-0.48,0-0.96,0-1.44,0C239.29,92.31,239.77,91.55,240.25,93.06z"/>
<path class="st32" d="M317.91,275.25c0.32,0.64,0.64,1.28,0.96,1.92C317.6,277,318,276,317.91,275.25z"/>
<path class="st56" d="M309.28,253.19c0.32,0.64,0.64,1.28,0.96,1.92C308.97,254.95,309.37,253.95,309.28,253.19z"/>
<path class="st32" d="M316.48,271.41c0.32,0.64,0.64,1.29,0.95,1.93C316.16,273.17,316.56,272.17,316.48,271.41z"/>
<path class="st22" d="M351,362.5c1.28,0.16,0.87,1.16,0.96,1.92C351.64,363.78,351.32,363.14,351,362.5z"/>
<path class="st51" d="M273.79,109.86c5.76,3.91,11.71,7.52,17.73,11.01c2.3,1.26,4.79,2.19,6.71,4.08c1.38,1.34,1.78,2.95,2.07,4.86
	c0.45,2.88,1.1,5.74,1.59,8.62c1.2,7.09,1.98,14.26,3.35,21.32c0.9,4.64,1.74,9.3,2.67,13.94c0.97,4.79,1.79,9.63,2.38,14.5
	c0.59,4.89,1.49,9.73,2.34,14.58c0.03,3.72,1.41,7.24,1.71,10.92c0.06,0.77,0.4,1.56-0.36,2.19c-1.44,0.23-1.4-1.09-1.72-1.82
	c-1.92-4.44-3.63-8.96-5.13-13.56c-4.14-9.87-7.66-19.99-11.97-29.8c-1.08-2.46-1.79-5.07-2.88-7.54c-2.83-5.76-5-11.78-6.95-17.88
	l0.01,0.01c-0.6-0.75-0.57-1.84-1.32-2.52c-1.44-4.24-3.25-8.34-4.8-12.55c-2.39-6.49-5.3-12.78-7.62-19.29
	c-0.24-0.68-0.89-1.68-0.01-2.15C272.45,108.35,273.14,109.31,273.79,109.86z"/>
<path class="st29" d="M312.17,202.84c-1.21-7.36-2.39-14.72-3.62-22.07c-2.14-12.75-4.62-25.44-6.5-38.24
	c-0.71-4.86-1.63-9.7-2.46-14.54c-0.22-1.31-1-2.31-1.84-3.27c0.17-0.18,0.34-0.18,0.52-0.02c1.03,0.48,1.46,1.46,1.91,2.4
	c0.59,0.72,0.57,1.55,0.48,2.4c0,0.48,0,0.95,0,1.43c1.34,1.03,0.87,2.5,0.95,3.84l0,0c0.9,2.49,1.87,4.96,0.97,7.68
	c0.01,0.39,0.08,0.75,0.47,0.95c0.75,1.2,1.04,2.47,0.48,3.83c0.02,0.53-0.08,1.09,0.48,1.44c1.05,0.99-0.26,2.32,0.48,3.35
	c0.11,3.09,0.69,6.11,1.44,9.11c0.56,0.72-0.11,1.68,0.48,2.4c0,0.16,0,0.32,0,0.48c0.18,0.8,0.96,1.47,0.48,2.4
	c-0.05,0.84,0.02,1.66,0.48,2.39c0.86,0.84-0.06,1.98,0.48,2.88c0,0.32,0.01,0.64,0.01,0.95c1.34,1.03,0.56,2.58,0.95,3.84
	c0.57,1.06,1.01,2.14,0.48,3.36c0,0.32,0,0.64,0.01,0.95c1.62,1.15,0.48,2.91,0.95,4.32v0c0.81,1.03,0.26,2.25,0.48,3.36
	c1.12,7.03,2.24,14.06,3.36,21.09c0.26,0.32,0.3,0.66,0.05,1.01c-0.26,0.09-0.48,0.04-0.66-0.18
	C312.75,207.92,312.69,205.34,312.17,202.84z"/>
<path class="st21" d="M273.79,109.86c-0.64-0.27-1.28-0.53-2.25-0.94c0.97,3.61,2.44,6.79,3.71,10.03
	c2.97,7.6,5.98,15.19,8.95,22.79c0.14,0.36,0.13,0.78,0.19,1.17c-0.33,0.28-0.66,0.29-1,0.01c-1.31-3.09-2.98-6.08-3.81-9.29
	c-0.48-1.84-1.83-3.41-1.64-5.49c0.08-0.82-0.49-1.79-0.98-2.55c-1.25-1.9-2.04-4.03-3.11-6.01c-1.11-2.06-1.42-4.54-2.31-6.74
	c-0.61-1.5-0.68-3.02-0.95-4.88C271.81,108.67,273.51,107.89,273.79,109.86z"/>
<path class="st57" d="M292.51,163.04c2.1,3.59,3.17,7.6,4.7,11.42c3.47,8.63,6.78,17.32,10.15,25.99c0.31,0.55,0.39,0.98-0.47,0.95
	c-0.65-1.92-1.29-3.83-1.94-5.75c-1.49-1.44-1.72-3.46-2.38-5.28c-1.6-4.31-3.2-8.63-4.81-12.94c-2.14-2.67-3-5.89-3.82-9.12
	c0-0.16-0.01-0.32-0.01-0.47c-0.74-0.43-0.56-1.32-0.94-1.93c0-0.16,0-0.31-0.01-0.47C292.42,164.73,291.96,163.98,292.51,163.04z"
	/>
<path class="st16" d="M292.51,163.04c0.16,0.8,0.31,1.61,0.47,2.41c-1.52-0.03-0.85-1.45-1.26-2.16c-1.41-2.42-3.04-4.9-3.6-7.57
	c-0.4-1.87-2.67-3.23-1.53-5.45c-2-1.26-1.45-3.16-1.26-4.98c1.63,2.29,2.12,5.07,3.22,7.59
	C289.99,156.22,291.2,159.66,292.51,163.04z"/>
<path class="st34" d="M311.69,213.39c-1.38-0.5-1.53-1.86-1.99-2.97c-0.97-2.3-1.87-4.63-2.73-6.98c-0.1-0.27,0.26-0.72,0.41-1.08
	c0.17-0.05,0.4-0.07,0.43,0.02C309.17,206.03,311.27,209.42,311.69,213.39z"/>
<path class="st58" d="M311.69,213.39c-1.14-3.79-2.51-7.5-4.31-11.03c-0.16-0.32-0.32-0.64-0.47-0.96c0.38-0.21,0.46-0.56,0.47-0.95
	c2.12,4.35,3.56,8.96,5.34,13.45c0.26,0.65,0.57,1.28,0.86,1.93c0.43,0.32,0.43,0.74,0.25,1.19c-0.08,0.08-0.16,0.16-0.24,0.23
	c-0.6-0.51-0.86-1.18-0.95-1.93C311.68,214.99,312.13,213.97,311.69,213.39L311.69,213.39z"/>
<path class="st16" d="M293.95,168.32c1.27,3.04,2.55,6.08,3.82,9.12c-0.24-0.01-0.53,0.06-0.7-0.06
	C295.63,176.41,293.45,170.02,293.95,168.32z"/>
<path class="st59" d="M329.89,264.23c0.31,2.24,0.03,4.56,0.96,6.71c-0.44,0.2-1.14,1.29-1.28,0.03c-0.21-1.95-0.67-3.84-1.07-5.74
	c-0.14-0.69,0.29-1.19,0.92-1.49C329.58,263.9,329.74,264.06,329.89,264.23z"/>
<path class="st54" d="M322.23,222.03c1.02,2.46,0.84,5.14,1.43,7.67c-0.35,0.08-0.85,0.4-0.94-0.2
	C322.36,227.03,321.04,224.6,322.23,222.03z"/>
<path class="st60" d="M298.27,124.69c-0.17,0.01-0.35,0.01-0.52,0.02c-2.23-1.03-4.37-2.2-6.23-3.84c2.63,0.46,5.01,1.41,6.89,3.39
	C298.46,124.31,298.32,124.55,298.27,124.69z"/>
<path class="st61" d="M302.59,142.45c0-2.6-0.63-5.12-0.97-7.68C303.43,136.41,304.02,141.07,302.59,142.45z"/>
<path class="st58" d="M314.57,220.58c0.25-1.28-1.22-2.05-0.98-3.33c0,0,0.05-0.04,0.05-0.04c1.01-0.74,0.45-1.93,0.8-2.86
	c0.2-0.15,0.4-0.15,0.59,0.01l0,0c0.85,0.84,0.21,1.94,0.48,2.88c0,0.16,0,0.32,0.01,0.47
	C316.56,220.01,316.43,220.38,314.57,220.58z"/>
<path class="st62" d="M302.58,190.38c1.28,1.54,1.52,3.55,2.38,5.28C303.44,195.13,302.18,192.34,302.58,190.38z"/>
<path class="st54" d="M321.28,216.27c0.71,1.18,0.7,2.54,0.95,3.84c-0.72,0.76-1.39,0.92-1.39-0.4
	C320.84,218.57,321.12,217.42,321.28,216.27z"/>
<path class="st61" d="M303.54,147.23c-0.39-1.25-0.59-2.52-0.48-3.83C304.89,144.47,305.13,145.74,303.54,147.23z"/>
<path class="st59" d="M328.47,258.46c0.67,1.19,0.99,2.47,0.95,3.84c-0.74,0.1-1.5,0.42-1.47-0.92
	C327.97,260.36,328.29,259.44,328.47,258.46z"/>
<path class="st28" d="M314.57,220.58c1.99-0.4,0.75-1.87,0.96-2.87c1.42,0.74,1.78,1.76,0.81,3.11
	C315.62,221.82,315.04,221.49,314.57,220.58z"/>
<path class="st54" d="M310.25,185.11c-0.91-1.31-0.24-2.97-0.95-4.32C311.99,181.71,310.35,183.58,310.25,185.11z"/>
<path class="st4" d="M316.48,188.47c1.01,1.11,0.03,2.71,0.95,3.85c-1.15,0.51-1.46-0.18-1.4-1.09
	C316.08,190.3,316.32,189.38,316.48,188.47z"/>
<path class="st24" d="M308.32,139.08c0.17,0.96,0.65,1.87,0.48,2.89c-0.52,0.23-1.09,0.4-1.29-0.34
	C307.23,140.64,307.18,139.65,308.32,139.08z"/>
<path class="st54" d="M323.67,230.18c0.26,1.3,0.04,2.71,0.94,3.85c-0.72,0.33-1.41,0.58-1.42-0.64
	C323.19,232.3,323.04,231.18,323.67,230.18z"/>
<path class="st13" d="M315.04,179.84c0.82,1.16,0.38,2.62,0.95,3.84C313.21,183,315.36,181.12,315.04,179.84z"/>
<path class="st54" d="M308.81,176.48c-0.83-1.15-0.37-2.62-0.95-3.84C310.08,173.45,309.04,175.06,308.81,176.48z"/>
<path class="st54" d="M310.72,188.47c-0.91-1.01-0.29-2.24-0.48-3.36C311.76,186.04,311.25,187.25,310.72,188.47z"/>
<path class="st4" d="M318.38,197.57c-0.12,1.17,0.22,2.26,0.49,3.37C317.47,200.43,317.31,199.31,318.38,197.57z"/>
<path class="st24" d="M308.81,143.88c-0.2,1.27,0.91,2.16,0.95,3.36C308.07,146.51,307.88,145.35,308.81,143.88z"/>
<path class="st24" d="M307.37,134.77c0.79,0.67,0.36,1.59,0.48,2.4c-0.33-0.05-0.63,1.07-0.91,0.13
	C306.69,136.47,306.88,135.55,307.37,134.77z"/>
<path class="st4" d="M317.43,193.74c-0.19,1.27,0.44,2.3,0.93,3.38C315.94,196.57,316.98,195.07,317.43,193.74z"/>
<path class="st60" d="M304.49,152.03c-0.92-1.01-0.29-2.24-0.48-3.35C306.23,149.5,303.94,150.97,304.49,152.03z"/>
<path class="st28" d="M315.51,217.24c-0.84-0.85-0.33-1.92-0.48-2.88C316.81,215.05,315.88,216.19,315.51,217.24z"/>
<path class="st24" d="M310.24,150.11c0,0.32,0,0.64,0,0.96c-1.59-0.55-1.78-1.67-0.48-2.89c0,0.16,0,0.32,0.01,0.48
	C309.77,149.2,309.88,149.7,310.24,150.11z"/>
<path class="st28" d="M314.09,210.52c0-0.32,0-0.64,0-0.96c1.78,0.92,1.08,2.45,0.95,3.84C313.31,212.9,314.42,211.47,314.09,210.52
	z"/>
<path class="st60" d="M301.62,134.77c-0.65-1.2-0.01-2.71-0.95-3.84C302.57,131.82,302.06,133.3,301.62,134.77z"/>
<path class="st54" d="M324.62,234.97c-0.14,1.16,0.21,2.26,0.48,3.36C323.94,237.89,323.83,237.13,324.62,234.97z"/>
<path class="st63" d="M310.25,152.03c0.91,1.01,0.29,2.23,0.47,3.35C309.97,154.35,309.46,153.28,310.25,152.03z"/>
<path class="st4" d="M316,185.11c0.16,0.96,0.32,1.92,0.48,2.88C315.29,187.67,315.19,187.04,316,185.11z"/>
<path class="st63" d="M311.19,156.82c0.81,0.67,0.38,1.6,0.49,2.41C310.2,158.69,310.55,157.78,311.19,156.82z"/>
<path class="st29" d="M314.09,210.52c1,0.74-0.05,2.15,0.95,2.88c0,0.32,0,0.64,0,0.96c-0.16,0-0.32,0-0.49,0
	c-1.21-1.14-0.7-2.51-0.49-3.83L314.09,210.52z"/>
<path class="st16" d="M283.4,142.92c0.33,0,0.66-0.01,1-0.01c0.69,0.65,0.96,1.47,0.94,2.4C284.2,144.91,284.39,143.43,283.4,142.92
	z"/>
<path class="st60" d="M300.66,129.5c-0.46-0.74-0.54-1.56-0.48-2.4C301.66,127.63,301.31,128.53,300.66,129.5z"/>
<path class="st54" d="M309.29,179.84c-0.16-1.12-0.32-2.24-0.48-3.36C310.18,177.43,310.07,178.58,309.29,179.84z"/>
<path class="st60" d="M307.85,171.69c-0.86-0.84-0.32-1.92-0.48-2.88C308.97,169.53,307.93,170.69,307.85,171.69z"/>
<path class="st16" d="M292.99,165.92c0.61,0.5,0.88,1.16,0.94,1.93C291.99,168.01,292.93,166.75,292.99,165.92z"/>
<path class="st13" d="M314.56,176.48c0.56,0.35,0.46,0.92,0.47,1.45c-0.34,0.06-0.64,0.79-0.83,0.4
	C313.92,177.77,313.9,176.99,314.56,176.48z"/>
<path class="st34" d="M311.69,213.39c0.32,0.64,0.63,1.28,0.95,1.92C310.69,215.48,311.63,214.22,311.69,213.39z"/>
<path class="st60" d="M306.89,166.41c-0.16-0.8-0.32-1.6-0.48-2.4C306.96,164.74,307.89,165.38,306.89,166.41z"/>
<path class="st28" d="M293.94,184.15c-0.62-0.49-0.88-1.16-0.96-1.92C294.26,182.39,293.86,183.4,293.94,184.15z"/>
<path class="st60" d="M306.41,163.54c-0.79-0.67-0.36-1.59-0.48-2.4C306.73,161.81,306.3,162.73,306.41,163.54z"/>
<path class="st28" d="M294.42,185.59c-0.56-0.35-0.46-0.91-0.48-1.44C295.19,184.27,294.69,184.97,294.42,185.59z"/>
<path class="st13" d="M314.08,173.12c0.79,0.68,0.37,1.59,0.47,2.4C313.77,174.85,314.19,173.93,314.08,173.12z"/>
<path class="st51" d="M192.77,28.84c3.67,2,7.64,3.27,11.51,4.77c4.89,1.58,9.5,3.88,14.36,5.56c6.3,2.37,12.31,5.46,18.67,7.68
	c4.46,1.53,8.83,3.24,12.99,5.48c5.78,2.71,11.69,5.07,17.71,7.18c0.46,0.46,1.68-0.14,1.59,0.99c-0.08,0.97-0.99,0.85-1.69,0.89
	c-0.56,0.04-1.12,0.01-1.68,0.01c-30.88,0-61.75,0-92.63,0c-0.32,0-0.64,0.03-0.96-0.01c-0.84-0.09-1.92,0.33-2.41-0.6
	c-0.48-0.92,0.13-1.89,0.65-2.63c1.42-2.01,2.47-4.26,4.05-6.15c1.01-0.94,1.99-1.91,2.48-3.25c4.1-6.67,8.83-12.92,13.14-19.45
	C191.07,28.59,191.82,28.04,192.77,28.84z"/>
<path class="st27" d="M192.77,28.84c-1.29-0.21-1.78,0.74-2.36,1.6c-4.16,6.17-8.33,12.34-12.49,18.51
	c-0.76,0.88-1.28,1.91-1.94,2.85c-1.66,2.43-3.31,4.86-4.99,7.27c-0.95,1.38-0.66,2.02,1.06,1.88c0.24-0.02,0.48,0,0.72,0
	c31.42,0,62.85,0,94.27,0c0.7,0,1.4-0.06,2.14-0.1c0.13-1.04-0.95-0.79-1.16-1.33c0.16-0.02,0.33-0.01,0.47-0.08
	c1.61-0.73,2.45,0.76,2.57,1.56c0.17,1.15-1.23,0.88-2.04,0.88c-11.74,0.02-23.47,0.01-35.21,0.01c-20.36,0-40.72,0-61.08,0
	c-0.72,0-1.49,0.15-2.14-0.06c-1.15-0.37-1.83-0.78-1-2.4c3.66-7.17,8.69-13.44,13.12-20.09c2.27-3.41,4.32-7.02,6.99-10.15
	C190.28,28.52,191.51,26.63,192.77,28.84z"/>
<path class="st34" d="M237.36,47.07c-4.41-1.23-8.51-3.27-12.72-5.01c-2.02-0.84-4.21-1.34-6.02-2.67c0.07-0.28,0.36-0.33,0.53-0.51
	c6.38,1.82,11.92,5.64,18.22,7.67c0.14,0.12,0.19,0.23,0.14,0.35C237.46,47.01,237.41,47.07,237.36,47.07z"/>
<path class="st15" d="M237.36,47.07c0-0.17,0.01-0.34,0.01-0.52c3.38,0.88,6.88,1.29,9.76,3.71c0.89,0.75,2.6,0.57,3.17,2.07
	C245.86,50.89,241.54,49.14,237.36,47.07z"/>
<path class="st16" d="M219.15,38.88c-0.18,0.17-0.35,0.34-0.53,0.51c-4.99-1.39-9.64-3.65-14.34-5.78c2.22-0.66,4.03,0.81,5.69,1.65
	c1.77,0.9,3.65,1.14,5.38,1.93C216.61,37.76,217.88,38.31,219.15,38.88z"/>
<path class="st51" d="M218.66,85.38c-2.73,2.99-5.5,5.95-8.19,8.98c-4.38,4.94-8.69,9.94-13.06,14.89
	c-8.42,9.55-16.84,19.1-25.29,28.62c-4.38,4.94-8.76,9.9-13.27,14.72c-1.42,1.51-2.21,3.52-3.94,4.75
	c-0.32,0.46-0.68,0.89-1.12,1.24c-0.32,0.26-0.66,0.46-1.08,0.25c-0.44-0.22-0.36-0.61-0.36-1.01c0.01-2.64,0.72-5.17,1.16-7.74
	c0.62-3.64,1.09-7.31,1.83-10.93c0.8-3.88,1.51-7.77,2.18-11.67c0.41-2.4,0.55-4.84,1.11-7.23c0.93-3.98,1.4-8.06,2.03-12.1
	c0.56-3.57,1.3-7.1,1.86-10.67c0.5-3.19,1.25-6.35,1.84-9.54c0.33-1.75,2.08-1.95,3.42-2c3.25-0.14,6.48-0.82,9.77-0.34
	c2.06,0.3,4.12-0.33,6.15-0.6c1.76-0.23,3.53-0.47,5.24-0.21c3.53,0.53,6.92-0.45,10.38-0.61c0.16-0.01,0.32-0.1,0.47-0.09
	c6.06,0.59,12.02-1.07,18.07-0.74C219.76,83.45,219.8,83.58,218.66,85.38z"/>
<path class="st64" d="M218.66,85.38c0.28-0.82,1.38-1.79-0.84-1.61c-4.84,0.39-9.7,0.41-14.54,0.68
	c-10.39,0.59-20.79,1.23-31.18,1.87c-1.9,0.12-3.81-0.1-5.71,0.36c-1.12,0.27-1.67,0.79-1.84,1.84
	c-2.26,13.46-4.49,26.92-6.78,40.37c-1.68,9.84-3.44,19.66-5.17,29.51c1.26,0.4,1.48-0.96,2.32-1.06c-0.46,1.74-1.59,2.51-3.37,2.36
	c-0.41-0.48-0.42-0.96,0-1.43c0.56-0.35,0.46-0.91,0.48-1.44c-0.47-1.07-0.26-2.02,0.48-2.88c-0.16-0.48,0.55-0.96,0-1.44
	c-0.52-1.24-0.08-2.16,0.95-2.88c0-0.48,0-0.95,0-1.43c-0.46-1.06-0.26-2.02,0.49-2.88c0.38-0.21,0.46-0.57,0.47-0.96
	c-0.23-1.18-0.69-2.38,0.48-3.36c0-0.32,0-0.64,0-0.96c0.39-1.1-0.28-2.5,0.94-3.36c-0.32-2.64,1.17-5.04,0.97-7.66
	c0.57-0.54-0.24-1.42,0.47-1.92c0.16-0.96,0.32-1.91,0.48-2.87c-0.57-1.08-0.23-2.01,0.48-2.88c0-0.16,0-0.32,0-0.48
	c0.5-1.4-1.09-3.26,0.95-4.32c0-0.32,0-0.63,0.01-0.95c-0.44-1.06-0.28-2.02,0.48-2.89c0-0.16,0-0.32,0-0.47
	c0.24-1.46-0.85-3.21,0.95-4.32c0-0.32,0-0.63,0-0.95c-0.64-1.52,0.09-2.7,0.95-3.85c0-0.16,0-0.31,0-0.47
	c-0.57-1.09-0.47-2.06,0.48-2.89c0-0.48,0.01-0.95,0.01-1.43c-0.38-1.05,0.04-1.96,0.48-2.88c0.92-2.09,0.65-4.41,1.22-6.6
	c0.38-1.43,0.8-2.43,2.13-2.99c0.91-0.47,1.88-0.13,2.82-0.23c1.35-0.15,2.71-0.19,4.05-0.45c1.22,0.06,2.47-0.27,3.67,0.21
	c1.12,0,2.24-0.01,3.36-0.01c3.63-1.19,7.31-1.29,11.03-0.5c3.71-0.32,7.31-1.49,11.06-1.39c1.34,0.04,2.67,0.35,4.01,0.45
	c2.4,0.18,4.54-1.09,6.93-1.23c1.92-0.11,3.78-0.29,5.65,0.25c0.61,0.18,1.4,0.17,1.41,0.99C219.94,84.68,219.57,85.33,218.66,85.38
	z"/>
<path class="st65" d="M190.86,84.87c-3.67,0.18-7.38-0.32-11.03,0.5c1.97-1.65,4.4-1.29,6.66-1.36
	C187.94,83.97,189.7,83.19,190.86,84.87z"/>
<path class="st66" d="M158.26,121.34c0.17,1.02-0.32,1.92-0.48,2.88C156.37,122.57,156.5,121.78,158.26,121.34z"/>
<path class="st66" d="M159.21,116.54c-1.36,1.21,0.08,3.04-0.95,4.32c-0.18-0.99-0.55-1.93-0.51-2.98
	C157.8,116.85,158.27,116.5,159.21,116.54z"/>
<path class="st65" d="M176.48,85.38c-1.28,0-2.56,0-3.83,0c-0.96,0.36-1.92,0.37-2.88,0C172,84.61,174.24,84.61,176.48,85.38z"/>
<path class="st66" d="M160.65,107.91c-0.9,1.31-0.55,2.9-0.95,4.32C159.6,110.7,157.96,108.83,160.65,107.91z"/>
<path class="st22" d="M152.51,119.43c0.58-1.21,0.12-2.69,0.95-3.84C153.14,116.87,155.3,118.76,152.51,119.43z"/>
<path class="st15" d="M143.88,169.77c0.84-0.97,0.01-2.42,0.95-3.36C145.33,167.76,146.12,169.2,143.88,169.77z"/>
<path class="st15" d="M146.28,156.35c-0.02-1.51,0.36-2.94,0.96-4.32C146.81,153.44,148.17,155.26,146.28,156.35z"/>
<path class="st66" d="M161.6,103.12c-0.14,1.32-1.25,2.41-0.95,3.85C159.85,105.41,159.66,104,161.6,103.12z"/>
<path class="st22" d="M150.12,132.85c0.32-1.28,0.63-2.56,0.95-3.84C151.87,130.57,151.82,131.92,150.12,132.85z"/>
<path class="st15" d="M145.8,161.14c0.19-1.11-0.44-2.35,0.48-3.36C146.39,158.94,147.52,160.24,145.8,161.14z"/>
<path class="st22" d="M153.47,114.63c0.15-0.96-0.39-2.04,0.48-2.88C153.83,112.72,155.44,113.98,153.47,114.63z"/>
<path class="st22" d="M151.07,128.06c0.15-0.96,0.64-1.87,0.48-2.88C153.16,126.43,152.26,127.27,151.07,128.06z"/>
<path class="st15" d="M142.45,177.92c0.84-0.97,0.01-2.42,0.95-3.36C143.6,175.83,144.21,177.22,142.45,177.92z"/>
<path class="st15" d="M144.84,165.93c0.16-1.12,0.32-2.24,0.48-3.36C146.1,163.83,146.2,164.99,144.84,165.93z"/>
<path class="st15" d="M143.4,174.08c0.16-0.96,0.32-1.92,0.48-2.88C144.37,172.27,145.17,173.39,143.4,174.08z"/>
<path class="st66" d="M153.46,149.62c-0.39,0.94-1.08,1.78-0.95,2.88C151.74,150.45,151.88,150.03,153.46,149.62z"/>
<path class="st66" d="M155.85,136.68c-0.82,0.98-0.01,2.42-0.94,3.36C154.41,138.69,154.48,137.5,155.85,136.68z"/>
<path class="st66" d="M151.55,158.26c0,0.48,0,0.96,0,1.43c-1.25,0.32-0.92-0.66-0.89-1.2C150.7,157.86,151.1,157.78,151.55,158.26z
	"/>
<path class="st66" d="M157.3,127.09c-0.06,0.66,0.22,1.41-0.47,1.92c-0.1-0.97-0.79-1.86-0.34-2.94
	C156.77,126.43,157.03,126.76,157.3,127.09z"/>
<path class="st22" d="M152.03,123.74c0.66-1.05-0.1-2.3,0.48-3.36C153.03,121.6,153.54,122.82,152.03,123.74z"/>
<path class="st66" d="M159.69,112.71c-0.15,0.96-0.64,1.87-0.48,2.89C158.72,114.52,157.94,113.4,159.69,112.71z"/>
<path class="st66" d="M162.09,99.76c-0.55,0.9-0.48,1.9-0.48,2.89C160.02,101.4,160.9,100.55,162.09,99.76z"/>
<path class="st66" d="M162.58,95.45c0.17,1.01-0.32,1.92-0.48,2.88C161.31,97.21,161.34,96.23,162.58,95.45z"/>
<path class="st66" d="M153.95,145.32c-0.16,0.96-0.65,1.86-0.49,2.88C152.95,147.12,152.26,146.02,153.95,145.32z"/>
<path class="st66" d="M169.77,85.38c0.96,0,1.92,0,2.88,0c-1.18,0.94-2.57,0.27-3.84,0.47c-0.16-0.11-0.21-0.21-0.15-0.32
	c0.05-0.1,0.1-0.16,0.16-0.16C169.13,85.39,169.45,85.39,169.77,85.38z"/>
<path class="st66" d="M154.9,141c-0.66,1.05-0.44,2.22-0.48,3.36C153.81,143.13,153.27,141.91,154.9,141z"/>
<path class="st66" d="M152.51,153.94c-0.15,0.96-0.65,1.87-0.48,2.88C151.5,155.75,150.83,154.65,152.51,153.94z"/>
<path class="st22" d="M149.64,136.21c0.16-0.8,0.32-1.6,0.48-2.4C150.77,134.77,151.12,135.67,149.64,136.21z"/>
<path class="st22" d="M155.38,103.12c0.15-0.96-0.39-2.03,0.48-2.88C155.71,101.21,156.25,102.28,155.38,103.12z"/>
<path class="st22" d="M155.87,99.29c0.16-0.8,0.32-1.6,0.48-2.4C157.32,97.92,156.45,98.58,155.87,99.29z"/>
<path class="st65" d="M168.81,85.39c0,0.16,0,0.32,0,0.47c-0.96,0-1.91,0-2.87,0.01C166.77,84.99,167.85,85.54,168.81,85.39z"/>
<path class="st21" d="M206.69,418.76c0-2.39,0-4.79,0-7.18c0.01-2.95,1.15-4.05,3.99-4.01c2.95,0.04,5.93-0.22,8.85,0.07
	c3.54,0.36,7.17,0.59,10.4,2.47c1.32,0.77,1.48,2.13,2.09,3.3c2.25,4.32,1.85,8.45-0.76,12.42c-1.14,1.74-3.28,2.59-4.96,3.01
	c-2.18,0.54-4.45,1.42-6.95,0.91c-2.64-0.55-5.37,0.17-8.06,0.33c-3.54,0.21-4.59-0.91-4.59-4.37
	C206.68,423.38,206.69,421.07,206.69,418.76z"/>
<path class="st67" d="M206.69,461.27c-3.22,1.16-3.83,0.77-3.83-2.45c0-17.29,0.04-34.58-0.06-51.87c-0.01-2.03,0.59-2.83,2.52-3.01
	c4.61-0.43,9.23-0.07,13.84-0.2c-3.49,1.58-7.18,0.82-10.79,0.94c-4.68,0.15-4.05-0.6-4.06,4.08c-0.03,17.08,0.01,34.15-0.07,51.23
	C204.22,462.46,205.93,460.75,206.69,461.27z"/>
<path class="st67" d="M207.65,434.42c-0.59,1.16-0.01,2.33-0.01,3.49c0,7.17,0.01,14.34,0,21.51c0,0.76,0.23,1.68-0.95,1.85
	c-0.48-0.79-0.49-1.66-0.49-2.54c0.01-7.26,0-14.52,0.01-21.78C206.21,435.84,205.99,434.59,207.65,434.42z"/>
<path class="st67" d="M222.99,403.74c1.81,0.05,3.69-0.31,5.28,0.95C226.37,405.13,224.5,405.44,222.99,403.74z"/>
<path class="st12" d="M237.37,417.16c0.75,1.12,0.75,2.24,0,3.36C237.37,419.4,237.37,418.28,237.37,417.16z"/>
<path class="st29" d="M454.08,448.32c0-14.46,0-28.91,0-43.37c0-0.23,0.03-0.47,0.1-0.68c0.02-0.05,0.25-0.04,0.38-0.05
	c0,13.8,0.01,27.59-0.02,41.39C454.54,446.52,454.91,447.54,454.08,448.32z"/>
<path class="st68" d="M81.55,433.08c0-8.86-0.01-17.73,0.01-26.59c0-1.06-0.35-2.39,1.52-2.27c1.47,0.09,1.89,0.75,1.87,2.25
	c-0.09,6.55-0.05,13.1-0.03,19.64c0.01,2.81,0.71,3.51,3.56,3.51c7.83,0.01,15.65,0,23.48,0c3.89,0,4.13-0.24,4.13-4.28
	c0-6.15,0.03-12.3-0.02-18.45c-0.01-1.65,0.18-2.77,2.28-2.73c2.04,0.04,2.06,1.22,2.06,2.7c-0.02,17.33-0.02,34.66,0.01,51.99
	c0,1.59-0.15,2.5-2.14,2.48c-1.88-0.02-2.24-0.71-2.23-2.41c0.08-7.59,0.04-15.17,0.03-22.76c0-3.02-0.66-3.67-3.62-3.67
	c-7.99,0-15.97,0-23.96,0c-2.94,0-3.58,0.66-3.59,3.7c-0.01,7.67-0.06,15.33,0.04,23c0.02,1.7-0.76,2.3-2.16,2.49
	c-0.89,0.12-1.39-0.09-1.38-1.3c0.08-9.1,0.04-18.2,0.04-27.3C81.49,433.08,81.52,433.08,81.55,433.08z"/>
<path class="st1" d="M141,456.96c0.94,0.59,1.99,0.48,3.03,0.48c7.35,0,14.7-0.02,22.05,0.03c0.72,0,2.19-0.71,1.8,1.17
	c-0.26,1.27,0.79,3.17-1.93,3.14c-8.87-0.1-17.73-0.06-26.6-0.01c-1.71,0.01-2.2-0.72-2.2-2.32c0.03-17.66,0.03-35.31,0-52.97
	c0-1.62,0.54-2.3,2.22-2.29c8.87,0.05,17.74,0.07,26.6-0.02c1.66-0.02,2.22,0.85,2.23,2.11c0.02,1.56-1.34,1.28-2.33,1.28
	c-7.11,0.02-14.22,0.01-21.33,0.01c-3.16,0-4.01,0.83-4.02,3.9c-0.01,4.47-0.01,8.95,0,13.42c0.01,3.01,0.79,3.76,3.86,3.77
	c6.87,0.01,13.74,0.1,20.61-0.05c2.32-0.05,3.25,0.63,2.85,2.93c-0.83,0.69-1.82,0.47-2.76,0.47c-6.45,0.02-12.9,0.01-19.35,0.01
	c6.45,0,12.9-0.01,19.35,0.01c0.93,0,1.93-0.22,2.75,0.47c-0.71,0.77-1.64,0.46-2.47,0.46c-7.3,0.02-14.61,0-21.91,0.03
	c-0.83,0-1.77-0.31-2.47,0.47c-0.54,3.55-0.23,7.12-0.21,10.67C140.8,448.41,140.45,452.69,141,456.96z"/>
<path class="st69" d="M167.85,432.51c-8.52,0-17.03,0-25.55,0c0-0.32,0-0.64,0-0.96c8.52,0,17.04,0,25.55,0
	C167.85,431.86,167.85,432.18,167.85,432.51z"/>
<path class="st69" d="M141,456.96c-0.6-0.47-0.47-1.13-0.48-1.75c-0.01-6.66-0.01-13.32,0-19.98c0-0.62-0.12-1.29,0.47-1.75
	C141,441.29,141,449.12,141,456.96z"/>
<path class="st70" d="M374.97,456.96c0.17-0.01,0.33-0.01,0.5-0.02c0,0-0.01,0-0.01,0c0.69,0.82,1.64,0.48,2.47,0.48
	c7.03,0.03,14.06,0.04,21.08,0c1.45-0.01,2.43,0.08,2.38,1.99c-0.05,1.77-0.66,2.38-2.41,2.37c-8.94-0.06-17.89-0.06-26.83,0
	c-1.64,0.01-2-0.63-1.99-2.12c0.04-17.81,0.04-35.62,0-53.43c0-1.59,0.53-2.05,2.08-2.04c9.1,0.06,18.21,0,27.31,0.07
	c0.99,0.01,2.61-0.65,2.74,1.28c0.14,2.04-1.39,2.02-2.77,2.03c-6.87,0.02-13.74,0.01-20.6,0.01c-0.79,0-1.57,0-2.36,0
	c0,0.14,0,0.28-0.01,0.42c8.1,0,16.19,0,24.29,0c0,0.18,0,0.35,0,0.53c-3.32,0-6.63,0-9.95,0c-4.63,0-9.26-0.02-13.9,0.01
	c-2.94,0.02-3.44,0.55-3.45,3.52c0,4.07-0.01,8.15,0,12.22c0,2.83,1.51,4.38,4.35,4.39c6.87,0.02,13.74,0.1,20.6-0.05
	c2.32-0.05,3.25,0.63,2.85,2.93c-0.39,0.76-1.08,0.49-1.69,0.49c-6.93-0.02-13.86,0-20.79-0.01c6.47,0.01,12.94-0.02,19.41,0.03
	c0.91,0.01,2.12-0.49,2.58,0.92c-8.63,0.01-17.25,0.01-25.88,0.02c-1.16,0.62-0.94,1.72-0.96,2.73c-0.1,6.59,0.21,13.18-0.18,19.76
	C373.77,456.51,374.35,456.66,374.97,456.96z"/>
<path class="st69" d="M400.85,432.97c-0.8-0.81-1.81-0.44-2.72-0.45c-7.39-0.03-14.78-0.02-22.19-0.3c2.6-1.1,5.35-0.56,8.03-0.65
	c2.94-0.1,5.89-0.02,8.83-0.02c2.84,0,5.69,0,8.53,0C401.15,432.01,402.14,432.88,400.85,432.97z"/>
<path class="st71" d="M374.97,456.96c-1.2,0.1-1.45-0.58-1.45-1.62c0.02-6.77,0.02-13.54,0.01-20.31c0-1.04,0.14-1.94,1.44-2.04
	c-0.59,0.94-0.46,1.99-0.48,3.02c-0.17,6.53,0.37,13.06-0.29,19.58C374.12,456.34,374.75,456.48,374.97,456.96z"/>
<path class="st70" d="M39.84,407.09c-0.4-2.29,0.53-2.96,2.85-2.93c9.02,0.13,18.05,0.05,27.08,0.01c0.71,0,1.41-0.12,1.18,0.83
	c-0.18,0.75,0.87,1.91-0.81,2.25c-2.94,0.6-5.88,0.22-8.82,0.31c-2.81,0.09-3.74,0.94-3.74,3.72c-0.01,15.82,0,31.63-0.01,47.45
	c0,2.8-1.5,3.72-4.16,2.7c-1.2-0.46-0.59-1.36-0.59-2c-0.04-12.14-0.03-24.29-0.03-36.43c0-4.07,0.01-8.15-0.01-12.22
	c0-0.77,0.26-1.62-0.47-2.25c-0.73-0.8-1.7-0.72-2.65-0.73c-2.3-0.01-4.59,0-6.89-0.01C41.74,407.79,40.69,407.85,39.84,407.09z"/>
<path class="st65" d="M39.84,407.09c3.4,0,6.8,0.01,10.2,0c1.07,0,2.13-0.02,2.26,1.44c-3.54,0-7.09-0.02-10.63,0.01
	C40.63,408.54,39.72,408.5,39.84,407.09z"/>
<path class="st63" d="M310.24,150.11c-0.51-0.37-1.32-0.63-0.48-1.44C310.33,149.02,310.23,149.58,310.24,150.11z"/>
<path class="st1" d="M297.3,452.64c0.48,1.88,1.5,3.45,2.85,4.81c-0.09,0.62-0.41,1.33-0.22,1.85c0.35,0.93,1.35,2.01-0.36,2.32
	c-1.52,0.27-2.87-0.37-3.55-2.04c-1.34-3.27-2.35-6.73-4.95-9.34c-0.44-2.09-1.47-3.98-2.09-6.02c-0.41-1.35-1.72-2.2-3.53-2.17
	c-6.69,0.12-13.39,0.26-20.07-0.04c-3.13-0.14-4.65,1.35-5.78,3.71c-1.07,2.22-2.14,4.49-2.79,6.85c-0.9,3.28-3.17,5.73-4.78,8.57
	c-0.77,1.36-2.7,0.68-4.12,0.14c0.64-2.9,2.76-5.09,3.76-7.86c1.4-3.85,3.23-7.55,4.88-11.31c0.67-0.25,0.86-0.81,0.95-1.44
	c0-0.16,0.01-0.32,0.01-0.47c2.38-2.98,3.63-6.51,4.79-10.07c1.49-4.32,4.3-8.02,5.77-12.37c0.89-2.66,2.22-5.18,3.35-7.76
	c0.67-0.25,0.86-0.81,0.95-1.44c0-0.16,0-0.32,0.01-0.47c0.66-0.26,0.89-0.8,0.95-1.44c0,0,0,0,0,0c0.94-1.37,2.15-0.82,3.33-0.46
	c-0.09,0.22-0.31,0.51-0.24,0.65c2.03,4.21,2.72,9,5.34,12.94c0.93,1.4,1.58,2.89,2.22,4.38c0.31,0.72,0.85,0.84,1.33,1.19
	c-0.43,2.57,0.9,4.7,1.9,6.84c1.53,3.25,3.4,6.33,4.94,9.57c1.16,2.42,2.13,4.94,2.88,7.55C295.4,450.56,295.98,451.9,297.3,452.64z
	"/>
<path class="st1" d="M326.06,433.47c0,0.69,0.01,1.37,0.94,1.46c-0.32,0.9-0.12,1.68,0.51,2.37c0.09,0.63,0.28,1.19,0.94,1.44
	c0,0.32,0.01,0.64,0.01,0.95c-0.11,0.76,0.39,1.12,0.95,1.44c0,0.32,0.01,0.64,0.01,0.95c0.77,2.32,1.06,4.84,2.88,6.71
	c1.19,0.76,1.66,0.03,2.15-0.93c2.92-5.69,5.06-11.72,7.48-17.62c0.69-1.68,1.56-3.29,2.35-4.93c0.74-1.01,0.86-2.28,1.44-3.36
	c-0.18-1.26,0.88-2.16,0.97-3.35c1.78-2.16,2.15-5,3.55-7.35c1-1.68,1.78-3.5,2.65-5.26c0.48-0.96,1.08-1.78,2.29-1.77
	c0.77,0,1.63-0.22,2.22,0.53c0.64,0.83-0.34,1.23-0.49,1.85c-0.59,2.34-2.49,4.18-2.56,6.71c-0.99,0.31-0.6,1.3-0.96,1.92l0,0
	c-0.95,1.48-2.17,2.84-1.92,4.8c0,0.16,0,0.31-0.01,0.47c-0.66,0.26-0.86,0.81-0.95,1.45c-0.52,1.42-1.35,2.74-1.45,4.31
	c-1.1,0.22-1.39,1.19-1.6,2.02c-0.73,2.96-3.5,4.91-3.63,8.38c-0.05,1.32-0.23,3.53-1.48,4.94c-3.14,5.06-5.57,10.41-6.72,16.29
	c-0.3,0.1-0.71,0.1-0.88,0.3c-0.56,0.7-0.65,2.32-1.79,1.79c-0.58-0.26-1.04-1.72-1.27-2.83c-0.38-1.9-0.95-3.87-3.2-4.55
	c0.12-0.44,1.03-0.68,0.63-1.12c-2.93-3.26-2.99-7.68-4.69-11.42c-1.19-2.62-2.13-5.4-4.13-7.58c-0.78-2.69-1.57-5.38-2.34-8.08
	c-0.25-0.86-0.82-1.46-1.5-1.98c0.22-1.42-0.72-2.34-1.44-3.36c-1.06-2.74-2.68-5.25-3.36-8.15c-0.24-0.45,0.08-1.09-0.48-1.44
	c-0.45-1.01-0.57-2.15-1.1-3.13c-0.33-0.62-0.93-1.2-0.29-1.92c0.54-0.62,1.32-0.4,2.02-0.46c1.03-0.1,1.46,0.87,2.25,1.2
	c0,0.16,0,0.32,0,0.48c0.36,0.46,0.11,1.31,0.95,1.45c0,0.32,0,0.63,0,0.95c-0.14,0.27-0.47,0.62-0.39,0.79
	c1.32,3.04,2.45,6.2,4.16,9.01c0.99,1.63,1.84,3.32,2.14,5.06c0.35,2.02,1.82,3.41,2.22,5.17c0.33,1.43,1.17,2.61,1.37,4.01
	C324.69,433.05,325.04,433.57,326.06,433.47z"/>
<path class="st34" d="M351.47,420.04c-1.07-2.29,0.67-3.45,1.92-4.8C352.75,416.84,352.11,418.44,351.47,420.04z"/>
<path class="st34" d="M350.52,421.96c-0.66-1.12-0.2-1.51,0.95-1.45C351.15,420.99,350.84,421.47,350.52,421.96z"/>
<path class="st34" d="M353.39,415.24c-0.14-0.87-0.58-1.89,0.96-1.92C354.03,413.96,353.71,414.6,353.39,415.24z"/>
<path class="st72" d="M332.3,448.8c-1.62-0.87-3.14-4.41-2.88-6.71C331.06,444.04,331.17,446.64,332.3,448.8z"/>
<path class="st20" d="M345.72,421.96c-0.36,1.17,0.09,2.69-1.44,3.36C344.29,423.99,344.85,422.91,345.72,421.96z"/>
<path class="st72" d="M329.41,441.14c-0.99-0.04-1.94-0.11-0.95-1.44C328.78,440.18,329.1,440.66,329.41,441.14z"/>
<path class="st72" d="M328.45,438.74c-1.16,0.07-1.6-0.33-0.94-1.44C327.82,437.78,328.14,438.26,328.45,438.74z"/>
<path class="st27" d="M314.08,405.18c-1.31,0.1-2.45-1.93-3.68-0.64c-1.25,1.31,0.91,2.4,0.78,3.77c-0.04,0.39,0.01,0.79,0.02,1.18
	c-1.22-1.66-1.69-3.65-2.86-5.94C310.54,404.28,312.82,402.46,314.08,405.18z"/>
<path class="st27" d="M315.04,419.08c1.36,0.74,2.26,1.68,1.44,3.36C316.02,421.31,315.19,420.34,315.04,419.08z"/>
<path class="st27" d="M315.03,407.1c-2.17,0.74-0.75-0.89-0.95-1.45C314.4,406.14,314.72,406.62,315.03,407.1z"/>
<path class="st27" d="M311.2,409.49c1.25,0.12,0.74,0.82,0.48,1.44C311.12,410.58,311.22,410.02,311.2,409.49z"/>
<path class="st72" d="M262.3,430.11c-0.42,3.92-1.96,7.3-4.79,10.07c0-0.32,0.01-0.63,0.01-0.95c2.12-1.99,2.46-4.89,3.75-7.3
	C261.61,431.32,261.69,430.57,262.3,430.11z"/>
<path class="st16" d="M272.37,408.53c0.66,1.13,0.2,1.52-0.95,1.44C271.73,409.49,272.05,409.01,272.37,408.53z"/>
<path class="st16" d="M273.33,406.61c0.65,1.12,0.2,1.52-0.95,1.44C272.69,407.58,273.01,407.09,273.33,406.61z"/>
<path class="st72" d="M257.51,440.65c0.66,1.13,0.2,1.52-0.95,1.44C256.87,441.61,257.19,441.13,257.51,440.65z"/>
<path class="st73" d="M338.52,345.25c-0.01,0.94,0.23,1.77,0.96,2.41c0.11,0.54,0.23,1.08,0.35,1.62c0.09,0.38,0.26,0.85-0.24,1.02
	c-0.58,0.2-0.81-0.32-1.07-0.71c1.06-0.97-0.07-1.71-0.27-2.55c-0.22-0.92-0.76-1.76-0.67-2.75
	C337.89,344.6,338.21,344.93,338.52,345.25z"/>
<path class="st74" d="M314.06,210.53c0.07,1.29-0.2,2.62,0.49,3.83c0,1.01,0.2,2.07-0.04,3.01c-0.25,0.95-0.54-0.21-0.87-0.17
	c-0.02-0.46-0.04-0.92-0.06-1.38c0.66-1.71,0.05-3.37-0.32-5c-0.61-2.64-1.16-5.27-1.08-7.99
	C313.36,205.27,312.69,208.15,314.06,210.53z"/>
<path class="st75" d="M175.97,51.8c0.25-1.22,0.81-2.23,1.94-2.85C177.63,50.14,177.03,51.13,175.97,51.8z"/>
<path class="st51" d="M208.15,418.9c0-2.72,0.01-5.43-0.01-8.15c0-0.95,0.06-1.82,1.34-1.77c5.33,0.22,10.7-0.61,15.99,0.53
	c4.25,0.91,6.91,4.31,7.11,8.75c0.21,4.7-2.07,8.01-6.31,9.58c-3.82,1.42-7.75,0.74-11.62,0.81c-6.49,0.11-6.49,0.02-6.49-6.4
	C208.15,421.14,208.15,420.02,208.15,418.9z"/>
<path class="st21" d="M265.18,438.26c-1.73-0.7-1.12-1.78-0.48-2.88c0.24-0.81,0.34-1.77,1.61-1.34c-0.23,2.39,1.04,2.77,3.14,2.68
	c3.97-0.17,7.96-0.08,11.94-0.03c1.66,0.02,2.2-0.45,1.41-2.1c-2.39-5.03-4.65-10.13-7.04-15.16c-0.2-0.42-0.28-1.04-0.79-1.12
	c-0.71-0.1-0.85,0.61-1.07,1.08c-1.03,2.15-1.95,4.36-3.04,6.49c-0.41,0.79-0.61,1.89-1.87,1.88c-0.22-0.35-0.24-0.68,0.04-1.01
	c0.96-2.24,1.92-4.47,2.88-6.71c0.29-1.59,1.22-2.9,1.92-4.31c1.37-0.17,2.13,0.31,2.62,1.73c0.83,2.41,2.2,4.55,3.67,6.67
	c1.77,2.56,2.32,5.75,3.34,8.69c0.53,1.53,1.04,3.14,2.73,3.95c-0.81,0.98-1.77,1.49-2.77,1.96c-3.62-0.55-7.26-0.09-10.89-0.25
	C270.06,438.38,267.61,438.76,265.18,438.26z"/>
<path class="st16" d="M269.01,426.75c0,0.33,0.01,0.65,0.01,0.98c0.35,2.3-0.92,5.08-2.86,6.22c-0.78,0.18-0.86,1.07-1.46,1.43
	c-0.83-1.49,0.39-2.53,1.01-3.52C266.78,430.15,266.8,427.72,269.01,426.75z"/>
<path class="st16" d="M265.18,438.26c5.25,0,10.5-0.01,15.74,0.01c0.84,0,1.77-0.32,2.48,0.46c-5.25,0-10.5,0.02-15.74-0.01
	C266.82,438.72,265.88,439.04,265.18,438.26z"/>
<path class="st16" d="M273.81,415.72c-0.1,1.68-0.91,3.04-1.92,4.31C271.43,418.11,272.5,416.87,273.81,415.72z"/>
<path class="st51" d="M266.16,433.95c1.34-1.9,2.31-3.96,2.86-6.22c2.08-2.95,3.06-6.44,4.77-9.57c0.26-0.47,0.32-1.2,0.96-1.26
	c0.82-0.08,0.95,0.74,1.2,1.28c2.6,5.63,5.12,11.31,7.81,16.9c0.96,1.99,0.28,2.28-1.56,2.25c-4.94-0.07-9.89-0.1-14.83,0.01
	c-2.03,0.04-2.46-0.5-1.41-2.24C266.16,434.8,266.1,434.34,266.16,433.95z"/>
</svg>
